<svg width="500" height="500" viewBox="0 0 500 500" fill="none" xmlns="http://www.w3.org/2000/svg">
<path d="M93.18 309.069C93.3453 307.036 94.1228 305.101 95.41 303.519C96.6218 301.93 98.3 300.758 100.21 300.169C101.84 299.705 103.578 299.793 105.153 300.419C106.728 301.045 108.052 302.173 108.92 303.629C109.655 302.167 110.835 300.975 112.291 300.228C113.747 299.48 115.403 299.214 117.02 299.469C118.987 299.832 120.791 300.801 122.18 302.239C123.648 303.651 124.647 305.48 125.04 307.479C125.511 310.032 125.146 312.67 124 314.999C122.638 317.369 120.732 319.381 118.44 320.869C114.72 323.419 109.83 326.619 109.83 326.619C109.83 326.619 105.35 323.669 101.37 321.619C98.9124 320.419 96.7792 318.646 95.15 316.449C93.7157 314.265 93.0248 311.677 93.18 309.069Z" fill="#EBEBEB"/>
<path d="M371.89 198.62C372.05 196.586 372.828 194.649 374.12 193.07C375.326 191.479 377.002 190.307 378.91 189.72C380.54 189.256 382.278 189.344 383.853 189.97C385.428 190.595 386.752 191.724 387.62 193.18C388.355 191.717 389.535 190.526 390.991 189.779C392.447 189.031 394.103 188.765 395.72 189.02C397.687 189.383 399.491 190.352 400.88 191.79C402.348 193.203 403.35 195.032 403.75 197.03C404.209 199.59 403.834 202.229 402.68 204.56C401.321 206.932 399.415 208.944 397.12 210.43C393.41 212.98 388.51 216.18 388.51 216.18C388.51 216.18 384.04 213.18 380.05 211.18C377.592 209.98 375.459 208.207 373.83 206.01C372.403 203.82 371.723 201.228 371.89 198.62Z" fill="#EBEBEB"/>
<path d="M120.25 284.238C120.348 282.933 120.848 281.689 121.68 280.678C122.456 279.655 123.533 278.9 124.76 278.518C125.414 278.34 126.097 278.295 126.769 278.386C127.441 278.477 128.087 278.702 128.67 279.048C129.358 279.471 129.937 280.05 130.36 280.738C130.831 279.8 131.59 279.036 132.525 278.558C133.46 278.079 134.523 277.911 135.56 278.078C136.823 278.303 137.982 278.922 138.87 279.848C139.814 280.757 140.457 281.933 140.71 283.218C141.011 284.86 140.773 286.554 140.03 288.048C139.158 289.572 137.934 290.865 136.46 291.818C134.07 293.458 130.93 295.518 130.93 295.518C130.93 295.518 128.05 293.618 125.49 292.278C123.911 291.507 122.539 290.369 121.49 288.958C120.581 287.559 120.146 285.904 120.25 284.238Z" fill="#F5F5F5"/>
<path d="M354.78 223.099C354.884 221.795 355.383 220.553 356.21 219.539C356.988 218.519 358.064 217.768 359.29 217.389C360.338 217.1 361.451 217.161 362.462 217.561C363.472 217.962 364.325 218.681 364.89 219.609C365.221 218.955 365.692 218.381 366.27 217.929C366.805 217.512 367.42 217.208 368.077 217.036C368.734 216.864 369.419 216.828 370.09 216.929C371.352 217.161 372.51 217.784 373.4 218.709C374.346 219.616 374.988 220.793 375.24 222.079C375.54 223.72 375.302 225.415 374.56 226.909C373.691 228.435 372.466 229.728 370.99 230.679C368.6 232.309 365.46 234.369 365.46 234.369C365.46 234.369 362.59 232.479 360.02 231.129C358.438 230.361 357.066 229.222 356.02 227.809C355.112 226.413 354.677 224.762 354.78 223.099Z" fill="#F5F5F5"/>
<path d="M405.33 273.649C405.428 272.343 405.928 271.1 406.76 270.089C407.536 269.065 408.613 268.31 409.84 267.929C410.494 267.75 411.177 267.705 411.849 267.796C412.521 267.887 413.167 268.113 413.75 268.459C414.438 268.882 415.017 269.461 415.44 270.149C415.909 269.208 416.667 268.442 417.603 267.964C418.538 267.485 419.603 267.319 420.64 267.489C421.9 267.722 423.056 268.34 423.95 269.259C424.894 270.167 425.537 271.343 425.79 272.629C426.086 274.27 425.848 275.963 425.11 277.459C424.237 278.985 423.009 280.278 421.53 281.229C419.15 282.869 416 284.929 416 284.929C416 284.929 413.13 283.029 410.57 281.689C408.991 280.918 407.619 279.779 406.57 278.369C405.661 276.969 405.226 275.314 405.33 273.649Z" fill="#EBEBEB"/>
<path d="M126.9 325.679C126.967 324.819 127.299 324.002 127.85 323.339C128.353 322.667 129.052 322.167 129.85 321.909C130.282 321.791 130.732 321.761 131.176 321.821C131.619 321.881 132.046 322.03 132.43 322.259C132.881 322.542 133.26 322.925 133.54 323.379C133.76 322.948 134.07 322.569 134.45 322.269C134.804 321.995 135.21 321.796 135.643 321.685C136.076 321.573 136.528 321.55 136.97 321.619C137.802 321.768 138.565 322.178 139.15 322.789C139.782 323.381 140.218 324.152 140.4 324.999C140.595 326.083 140.437 327.201 139.95 328.189C139.375 329.196 138.566 330.051 137.59 330.679C136.02 331.759 133.94 333.109 133.94 333.109C133.94 333.109 132.05 331.859 130.36 330.979C129.323 330.465 128.422 329.715 127.73 328.789C127.126 327.868 126.835 326.778 126.9 325.679Z" fill="#F5F5F5"/>
<path d="M72.79 83.7201C72.79 83.7201 68.18 87.7201 78.19 96.9301C83.2533 101.746 88.6318 106.219 94.29 110.32C94.29 110.32 96.29 112.58 94.23 113.81C92.17 115.04 87 116.06 87 119.15C87 122.24 90 124.26 95.07 125.06C100.14 125.86 111.07 128.06 112 128.22C112.93 128.38 114.22 129.35 112.94 130.42C111.66 131.49 101.07 136.7 103.85 141.57C106.63 146.44 120.97 146.38 122.54 146.41C124.11 146.44 124.65 146.89 124.82 147.69C124.99 148.49 121.26 149.9 118.31 151.5C115.36 153.1 112.22 155.5 114.05 158.17C115.88 160.84 125.67 164.29 144.52 159.36L153.11 156.51L155.11 147.63C158.17 128.39 153.79 118.99 150.94 117.43C148.09 115.87 146.03 119.22 144.72 122.31C143.41 125.4 142.37 129.25 141.56 129.17C140.75 129.09 140.24 128.58 140.06 127.02C139.88 125.46 138.55 111.18 133.42 108.9C128.29 106.62 124.15 117.66 123.21 119.04C122.27 120.42 121.21 119.26 120.93 118.32C120.65 117.38 117.42 106.69 116.13 101.77C114.84 96.8501 112.65 94.0301 109.46 94.3301C106.27 94.6301 105.88 99.8801 104.85 102.06C103.82 104.24 101.38 102.47 101.38 102.47C96.735 97.2346 91.7438 92.3169 86.44 87.7501C76.27 78.7501 72.7 83.8101 72.7 83.8101" fill="#EBEBEB"/>
<path d="M154.26 158.34C146.82 151.66 133.79 139.57 122.55 129.25C111.31 118.93 101.13 109.59 93.72 102.88L84.94 94.9398C83.94 93.9998 83.1 93.2798 82.55 92.7698L81.93 92.2098L81.73 92.0098C81.807 92.0615 81.8805 92.1183 81.95 92.1798C82.1 92.3198 82.32 92.4998 82.59 92.7298L85 94.8498C87.1 96.6998 90.12 99.3898 93.84 102.73C101.29 109.41 111.49 118.73 122.73 129.04C133.97 139.35 147 151.48 154.4 158.19" fill="#E0E0E0"/>
<path d="M94.29 118C94.5259 117.971 94.7642 117.971 95 118H96.78C98.28 118 100.36 118 102.65 118.14L108.51 118.4L110.29 118.47C110.506 118.45 110.724 118.45 110.94 118.47C110.726 118.515 110.508 118.535 110.29 118.53C109.86 118.53 109.29 118.53 108.5 118.53C107 118.53 104.93 118.44 102.64 118.35L96.77 118.12L95 118.06C94.7618 118.071 94.5231 118.051 94.29 118Z" fill="#E0E0E0"/>
<path d="M111.27 117.699C111.19 117.699 111.1 113.409 111.07 108.129C111.04 102.849 111.07 98.5488 111.16 98.5488C111.25 98.5488 111.32 102.839 111.35 108.119C111.38 113.399 111.34 117.699 111.27 117.699Z" fill="#E0E0E0"/>
<path d="M127.81 134.319C127.839 134.098 127.889 133.881 127.96 133.669C128.1 133.209 128.26 132.669 128.46 131.929C128.88 130.449 129.46 128.409 129.99 126.139C130.52 123.869 130.99 121.799 131.26 120.289C131.41 119.589 131.52 118.989 131.62 118.509C131.647 118.287 131.7 118.069 131.78 117.859C131.788 118.084 131.772 118.309 131.73 118.529C131.67 118.959 131.59 119.529 131.46 120.329C131.21 121.839 130.82 123.929 130.27 126.209C129.72 128.489 129.12 130.519 128.65 131.989C128.41 132.719 128.22 133.299 128.07 133.709C128.008 133.922 127.921 134.127 127.81 134.319Z" fill="#E0E0E0"/>
<path d="M112.52 137.998C112.703 137.902 112.898 137.831 113.1 137.788L114.72 137.338C116.09 136.958 117.98 136.468 120.08 135.938C122.18 135.408 124.08 134.938 125.46 134.618L127.09 134.248C127.29 134.199 127.494 134.165 127.7 134.148C127.516 134.242 127.321 134.313 127.12 134.358L125.51 134.808C124.14 135.188 122.24 135.678 120.15 136.208C118.06 136.738 116.15 137.208 114.77 137.528L113.13 137.898C112.93 137.949 112.726 137.983 112.52 137.998Z" fill="#E0E0E0"/>
<path d="M125.26 154.52C125.501 154.412 125.752 154.328 126.01 154.27L128.08 153.68C129.83 153.19 132.25 152.54 134.93 151.83C137.61 151.12 140.04 150.5 141.81 150.06L143.9 149.56C144.152 149.489 144.41 149.438 144.67 149.41C144.432 149.521 144.185 149.608 143.93 149.67L141.86 150.26C140.11 150.74 137.68 151.4 135 152.1C132.32 152.8 129.89 153.43 128.13 153.87L126.04 154.37C125.786 154.449 125.525 154.499 125.26 154.52Z" fill="#E0E0E0"/>
<path d="M144.18 149.399C144.21 149.118 144.267 148.84 144.35 148.569C144.49 147.999 144.67 147.239 144.9 146.339C145.36 144.449 145.99 141.839 146.6 138.939C147.21 136.039 147.71 133.389 148.05 131.479C148.22 130.559 148.36 129.799 148.46 129.209C148.498 128.928 148.559 128.65 148.64 128.379C148.64 128.664 148.616 128.948 148.57 129.229C148.5 129.769 148.4 130.549 148.25 131.509C147.96 133.439 147.5 136.089 146.88 138.989C146.26 141.889 145.6 144.509 145.09 146.389C144.83 147.329 144.61 148.079 144.45 148.599C144.377 148.871 144.287 149.138 144.18 149.399Z" fill="#E0E0E0"/>
<path d="M355.28 139.379C342 127.749 340.7 108.699 343.08 91.9992C343.48 89.1992 343.49 86.2092 345.08 83.8892C346.67 81.5692 349.97 80.2292 352.36 81.6792C354.36 82.8892 354.98 85.4092 355.93 87.5392C357.195 90.3838 359.241 92.8112 361.83 94.5392C363.52 95.6592 365.67 96.4592 367.54 95.6792C370.1 94.6092 370.74 91.2992 371.03 88.4992C371.557 83.2992 372.083 78.0959 372.61 72.8892C372.741 70.0828 373.328 67.3164 374.35 64.6992C375.5 62.1392 377.68 59.8892 380.42 59.4292C383.16 58.9692 386.27 60.8592 386.53 63.6492C386.518 64.8147 386.421 65.9778 386.24 67.1292C386.147 67.7141 386.233 68.3135 386.486 68.8488C386.74 69.3841 387.149 69.8304 387.66 70.1292C388.74 70.5792 389.94 69.9092 390.86 69.1292C394.04 66.6192 396.39 63.1992 398.61 59.7892C400.83 56.3792 403 52.8292 406 49.9992C409 47.1692 412.82 45.1692 416.84 45.3692C420.86 45.5692 424.84 48.4992 425.44 52.5292C426.04 56.5592 423.3 60.3192 420.44 63.2292C416.227 67.5638 411.41 71.2685 406.14 74.2292C405.13 74.6535 404.282 75.3893 403.72 76.3292C402.91 78.1192 404.48 80.1592 406.25 80.9692C408.25 81.8792 410.53 81.9092 412.68 82.3992C414.83 82.8892 417.08 84.1092 417.68 86.2492C418.52 89.2492 415.81 91.9592 413.25 93.6592C408.129 97.079 402.455 99.5891 396.48 101.079C394.35 101.609 392.12 102.079 390.31 103.299C388.5 104.519 387.2 106.999 388 108.999C388.8 110.999 391.29 111.999 393.48 111.819C395.67 111.639 397.73 110.689 399.86 110.139C403.86 109.139 408.77 109.899 410.86 113.479C411.488 114.7 411.823 116.05 411.841 117.422C411.858 118.795 411.557 120.153 410.96 121.389C409.742 123.849 408.041 126.039 405.96 127.829C399.094 134.473 390.588 139.177 381.31 141.459C372.09 143.579 363.76 143.529 355.26 139.349" fill="#F5F5F5"/>
<path d="M360.76 129.31C364.539 120.456 368.819 111.826 373.58 103.46C374.84 101.23 376.07 99.0295 377.29 96.8595C378.51 94.6895 379.73 92.5495 381.04 90.5195C383.578 86.6365 386.326 82.8943 389.27 79.3095C392.06 75.8695 394.83 72.7095 397.44 69.7695C400.05 66.8295 402.56 64.1495 404.94 61.7695C408.664 58.0421 412.676 54.6147 416.94 51.5195C418.45 50.4195 419.65 49.6095 420.47 49.0695L421.41 48.4595C421.513 48.3843 421.623 48.3206 421.74 48.2695C421.646 48.3573 421.546 48.4375 421.44 48.5095L420.53 49.1595C419.73 49.7195 418.53 50.5595 417.06 51.6795C412.843 54.8304 408.865 58.2899 405.16 62.0295C402.81 64.3995 400.33 67.0895 397.73 70.0295C395.13 72.9695 392.38 76.1495 389.61 79.5895C386.679 83.16 383.951 86.8926 381.44 90.7695C380.13 92.7695 378.93 94.9095 377.71 97.0795L374 103.68C369.246 112.027 364.963 120.634 361.17 129.46" fill="#E0E0E0"/>
<path d="M381.19 90.5184C381.106 90.117 381.059 89.7086 381.05 89.2984C380.98 88.5084 380.93 87.3684 380.88 85.9584C380.79 83.1384 380.79 79.2384 380.81 74.9584C380.83 70.6784 380.81 66.7684 380.64 63.9584C380.57 62.5484 380.51 61.4084 380.45 60.6284C380.4 60.22 380.4 59.8069 380.45 59.3984C380.562 59.7938 380.636 60.199 380.67 60.6084C380.79 61.3884 380.91 62.5284 381.02 63.9284C381.25 66.7484 381.36 70.6484 381.34 74.9284C381.32 79.2084 381.29 83.0084 381.27 85.9284V89.2684C381.295 89.6868 381.268 90.1067 381.19 90.5184Z" fill="#E0E0E0"/>
<path d="M417.79 87.6784C417.307 87.7189 416.822 87.7189 416.34 87.6784C415.41 87.6784 414.06 87.6784 412.4 87.6784C409.08 87.6784 404.49 87.8384 399.4 88.2384C394.31 88.6384 389.78 89.2384 386.49 89.7184C384.84 89.9584 383.49 90.1884 382.6 90.3384C382.126 90.4454 381.645 90.5123 381.16 90.5384C381.612 90.3577 382.081 90.2236 382.56 90.1384C383.47 89.9284 384.79 89.6384 386.43 89.3484C389.72 88.7584 394.29 88.1284 399.36 87.7184C403.684 87.3628 408.022 87.2259 412.36 87.3084C414.02 87.3084 415.36 87.4284 416.3 87.5084C416.801 87.5154 417.3 87.5723 417.79 87.6784Z" fill="#E0E0E0"/>
<path d="M361.27 128.69C361.182 128.547 361.114 128.392 361.07 128.23L360.6 126.87C360.19 125.68 359.6 123.95 359.01 121.8C357.72 117.5 356.13 111.51 354.46 104.88C352.79 98.2497 351.26 92.2497 350.06 87.9297L348.63 82.8197C348.48 82.2697 348.35 81.8197 348.25 81.4297C348.193 81.2686 348.159 81.1002 348.15 80.9297C348.229 81.081 348.295 81.2381 348.35 81.3997C348.47 81.7697 348.63 82.2197 348.82 82.7597C349.23 83.9497 349.77 85.6797 350.41 87.8297C351.7 92.1197 353.29 98.1097 354.96 104.75C356.63 111.39 358.16 117.38 359.36 121.75L360.79 126.86C360.94 127.41 361.07 127.86 361.17 128.25C361.221 128.392 361.255 128.539 361.27 128.69Z" fill="#E0E0E0"/>
<path d="M410.59 118.47C410.436 118.545 410.27 118.593 410.1 118.61L408.67 118.93L403.38 120.03C398.92 120.97 392.78 122.32 385.99 123.84C379.2 125.36 372.99 126.65 368.55 127.49C366.31 127.92 364.49 128.24 363.23 128.49L361.78 128.7C361.611 128.728 361.439 128.728 361.27 128.7C361.429 128.64 361.593 128.593 361.76 128.56L363.2 128.25L368.48 127.14C372.94 126.21 379.09 124.85 385.88 123.34C392.67 121.83 398.83 120.52 403.31 119.68C405.55 119.26 407.37 118.94 408.63 118.74L410.08 118.52C410.247 118.481 410.419 118.464 410.59 118.47Z" fill="#E0E0E0"/>
<path d="M473.37 465.821C473.37 465.971 373.37 466.091 250.01 466.091C126.65 466.091 26.63 466.001 26.63 465.821C26.63 465.641 126.63 465.561 250.01 465.561C373.39 465.561 473.37 465.681 473.37 465.821Z" fill="#263238"/>
<path d="M315.7 223.459C316.247 214.199 316.8 204.939 317.36 195.679C317.43 194.559 317.6 193.269 318.56 192.679C319.028 192.495 319.531 192.417 320.033 192.451C320.534 192.486 321.022 192.632 321.46 192.879C337.88 199.489 349.93 217.809 351.37 235.439" fill="#EA2845"/>
<g opacity="0.3">
<path d="M321.28 202.279C325.126 204.799 328.337 208.175 330.662 212.142C332.986 216.11 334.362 220.561 334.68 225.149C334.862 226.257 334.627 227.394 334.02 228.339C333.708 228.678 333.33 228.948 332.908 229.132C332.486 229.316 332.03 229.41 331.57 229.409C330.648 229.399 329.732 229.257 328.85 228.989C326.64 228.419 324.31 227.799 322.67 226.199C321.171 224.61 320.313 222.522 320.26 220.339C320.22 218.173 320.442 216.011 320.92 213.899L323.72 218.679L320.72 203.199C320.673 203.063 320.656 202.918 320.669 202.775C320.683 202.632 320.728 202.493 320.8 202.369C320.97 202.149 321.45 202.229 321.42 202.509" fill="white"/>
</g>
<path d="M220.51 243.179C211.941 233.005 207.014 220.261 206.51 206.969L215.66 211.279L213.37 208.489C226.722 209.602 239.112 215.885 247.9 225.999" fill="#EA2845"/>
<g opacity="0.3">
<path d="M225.58 239.138C221.987 236.527 218.967 233.205 216.709 229.38C214.45 225.555 213.001 221.306 212.45 216.898C212.38 216.298 212.45 215.508 213.01 215.308C213.219 215.272 213.433 215.282 213.637 215.34C213.842 215.397 214.03 215.499 214.19 215.638L230.7 226.428C229.983 225.399 229.536 224.206 229.4 222.958L236.4 228.088C236.666 228.236 236.9 228.435 237.089 228.674C237.277 228.912 237.417 229.186 237.5 229.478C237.504 229.808 237.428 230.133 237.28 230.427C237.133 230.721 236.916 230.975 236.65 231.168C235.484 232.221 234.065 232.953 232.531 233.293C230.997 233.633 229.402 233.57 227.9 233.108L230.9 235.718C230.007 236.296 229.006 236.686 227.957 236.867C226.909 237.047 225.835 237.014 224.8 236.768C224.699 237.262 224.747 237.774 224.94 238.239C225.132 238.704 225.46 239.101 225.88 239.378" fill="white"/>
</g>
<path d="M407 330.45C407 330.45 419.8 343.68 425.62 342.58C425.62 342.58 405.4 321.07 396.9 301.22C392.84 291.833 388.003 282.801 382.44 274.22C386.27 267.62 389.68 260.15 391.24 252.6C386.941 257.586 382.04 262.02 376.65 265.8C376.21 265.18 375.76 264.57 375.3 263.95C379.823 259.857 382.838 254.363 383.86 248.35L363.65 247.48C364.283 246.569 364.854 245.617 365.36 244.63C355.432 236.096 344.316 229.053 332.36 223.72C309.11 210.49 257.36 206.12 232.16 227.63C209.59 240.79 203.54 257.63 185.76 261.8L175.22 260.65C175.22 260.65 171.12 282.65 184.59 292.48L174.59 290.16C174.59 290.16 176.43 298.92 186.27 308.58L180.13 307.83C180.13 307.83 182.79 321.61 191.29 324.92C191.29 324.92 178.01 326.58 174.29 321.61C174.29 321.61 169.87 342.21 189.98 349.98C189.98 349.98 129.72 357.04 146.66 430.81C150.66 448.04 174.41 460.44 201.76 466.43L398.76 465.66C410.76 461.74 425.08 421.98 425.61 405.99C426.14 390 418.18 359.11 418.18 359.11L425.64 369.04L407 330.45Z" fill="#EA2845"/>
<path d="M181.84 361.189C170.53 360.509 159.42 369.299 157.49 380.469C164.848 375.588 173.251 372.506 182.02 371.469C178.566 374.646 176.159 378.797 175.118 383.372C174.077 387.947 174.451 392.731 176.19 397.089C177.648 393.194 179.881 389.635 182.756 386.629C185.63 383.622 189.084 381.231 192.91 379.599C190.297 382.751 188.541 386.524 187.812 390.553C187.083 394.583 187.406 398.732 188.75 402.599" fill="#EA2845"/>
<path d="M188.75 402.619C188.683 402.489 188.629 402.351 188.59 402.209C188.5 401.939 188.34 401.539 188.18 401.009C187.74 399.436 187.465 397.82 187.36 396.189C187.206 393.611 187.466 391.025 188.13 388.529C188.999 385.228 190.579 382.156 192.76 379.529L192.99 379.839C189.201 381.476 185.781 383.859 182.934 386.847C180.087 389.835 177.872 393.366 176.42 397.229L176.2 397.829L175.96 397.239C174.751 394.196 174.192 390.934 174.318 387.662C174.443 384.39 175.251 381.181 176.69 378.239C177.957 375.642 179.708 373.31 181.85 371.369L182.05 371.819C173.323 372.849 164.956 375.896 157.61 380.719L157.17 381.009L157.27 380.489C157.714 378.076 158.559 375.754 159.77 373.619C160.843 371.685 162.19 369.917 163.77 368.369C166.294 365.815 169.345 363.843 172.71 362.589C174.862 361.784 177.125 361.311 179.42 361.189C180.22 361.189 180.83 361.189 181.23 361.189C180.82 361.189 180.23 361.189 179.43 361.189C177.158 361.364 174.924 361.873 172.8 362.699C169.492 363.972 166.5 365.948 164.03 368.489C162.491 370.024 161.181 371.772 160.14 373.679C158.967 375.781 158.149 378.062 157.72 380.429L157.37 380.199C164.765 375.318 173.2 372.236 182 371.199L182.81 371.109L182.2 371.649C180.124 373.549 178.427 375.826 177.2 378.359C175.784 381.24 174.987 384.384 174.86 387.591C174.732 390.798 175.277 393.996 176.46 396.979H176C177.584 392.791 180.053 388.995 183.24 385.849C186.013 383.105 189.285 380.916 192.88 379.399L193.64 379.079L193.11 379.709C190.945 382.286 189.366 385.303 188.48 388.549C187.804 391.013 187.517 393.567 187.63 396.119C187.708 397.736 187.949 399.341 188.35 400.909C188.48 401.449 188.62 401.859 188.69 402.129C188.726 402.29 188.746 402.455 188.75 402.619Z" fill="#263238"/>
<path d="M388.33 392.219C394.435 390.927 400.799 391.778 406.35 394.629C411.902 397.479 416.302 402.155 418.81 407.869" fill="#EA2845"/>
<path d="M418.81 407.87C418.71 407.92 417.94 405.97 415.99 403.26C413.449 399.727 410.104 396.848 406.233 394.861C402.361 392.873 398.072 391.835 393.72 391.83C390.38 391.83 388.34 392.33 388.33 392.22C388.786 392.054 389.259 391.936 389.74 391.87C391.059 391.621 392.398 391.487 393.74 391.47C398.17 391.37 402.555 392.376 406.497 394.398C410.44 396.42 413.816 399.394 416.32 403.05C417.081 404.146 417.75 405.303 418.32 406.51C418.535 406.943 418.699 407.399 418.81 407.87Z" fill="#263238"/>
<g opacity="0.3">
<path d="M318.87 408.84C311.61 410 302.37 415.49 299 422C298.28 423.39 298.94 423.58 299 425.14C299.001 425.926 299.223 426.696 299.64 427.363C300.057 428.029 300.653 428.565 301.36 428.91C301.718 429.055 302.103 429.124 302.49 429.111C302.876 429.099 303.255 429.005 303.603 428.836C303.951 428.667 304.26 428.427 304.509 428.132C304.758 427.836 304.943 427.491 305.05 427.12C304.183 432.448 305.346 437.908 308.31 442.42C310.353 441.269 311.998 439.525 313.03 437.42C312.84 441.327 313.452 445.231 314.828 448.892C316.204 452.554 318.314 455.895 321.03 458.71L317.49 444.9C316.22 439.9 314.99 435.65 315.33 430.52C315.69 425.04 318.95 420.42 321.48 415.88C318 417.39 313.97 424.23 310.54 428.4C310.334 424.771 310.956 421.143 312.357 417.789C313.759 414.435 315.904 411.444 318.63 409.04" fill="black"/>
</g>
<path d="M317.51 445.058C317.395 444.872 317.302 444.674 317.23 444.468C317.08 444.068 316.79 443.468 316.55 442.698C315.8 440.453 315.346 438.12 315.2 435.758C314.963 432.162 315.387 428.552 316.45 425.108C317.758 420.731 320.093 416.73 323.26 413.438L323.61 413.798C320.687 416.418 317.913 419.199 315.3 422.128C313.612 424.054 312.121 426.145 310.85 428.368L310.46 429.058L310.37 428.278C309.928 424.154 310.677 419.989 312.53 416.278C314.064 413.133 316.343 410.411 319.17 408.348L319.36 408.688C317.373 409.428 315.551 410.553 314 411.998C312.83 413.083 311.82 414.329 311 415.698C310.48 416.57 310.032 417.483 309.66 418.428C309.553 418.769 309.427 419.103 309.28 419.428C309.269 419.342 309.269 419.254 309.28 419.168C309.33 418.988 309.39 418.728 309.5 418.398C309.829 417.422 310.255 416.48 310.77 415.588C311.58 414.177 312.591 412.89 313.77 411.768C315.34 410.278 317.188 409.112 319.21 408.338L320.55 407.828L319.39 408.678C316.663 410.733 314.471 413.416 313 416.498C311.219 420.132 310.502 424.194 310.93 428.218L310.45 428.118C311.739 425.866 313.246 423.745 314.95 421.788C317.578 418.843 320.372 416.052 323.32 413.428L323.67 413.788C320.549 417.017 318.233 420.937 316.91 425.228C315.836 428.623 315.382 432.183 315.57 435.738C315.686 438.081 316.085 440.401 316.76 442.648C316.98 443.438 317.24 444.018 317.36 444.428C317.423 444.635 317.473 444.845 317.51 445.058Z" fill="#263238"/>
<path d="M198.86 443.999C202.788 448.357 207.956 451.407 213.67 452.739C213.981 452.863 214.318 452.904 214.649 452.859C214.981 452.813 215.294 452.682 215.56 452.479C216.14 451.839 215.66 450.829 215.18 450.119L208.83 440.739C213.35 444.311 218.711 446.666 224.4 447.579C225.35 447.729 226.52 447.729 227 446.909C227.137 446.548 227.187 446.16 227.148 445.776C227.108 445.393 226.978 445.023 226.77 444.699C225.77 442.559 224.77 440.449 223.59 438.389" fill="#EA2845"/>
<path d="M223.59 438.35C223.712 438.504 223.816 438.672 223.9 438.85L224.7 440.35C225.06 441.02 225.47 441.82 225.95 442.73C226.203 443.196 226.463 443.696 226.73 444.23C227.063 444.79 227.277 445.413 227.36 446.06C227.388 446.446 227.274 446.83 227.04 447.14C226.783 447.446 226.431 447.657 226.04 447.74C225.267 447.858 224.478 447.82 223.72 447.63C222.067 447.346 220.439 446.935 218.85 446.4C215.168 445.171 211.727 443.313 208.68 440.91L209.06 440.56L210.16 442.19L213.7 447.43L215.39 449.92C215.69 450.347 215.91 450.824 216.04 451.33C216.116 451.608 216.102 451.903 216 452.173C215.897 452.442 215.712 452.672 215.47 452.83C215 453.067 214.459 453.124 213.95 452.99C213.48 452.91 213.06 452.77 212.62 452.67C211.75 452.42 210.92 452.16 210.14 451.86C208.68 451.311 207.269 450.642 205.92 449.86C203.964 448.735 202.154 447.375 200.53 445.81C199.96 445.25 199.53 444.81 199.27 444.48C199.119 444.324 198.985 444.153 198.87 443.97C199.045 444.095 199.206 444.239 199.35 444.4C199.64 444.7 200.08 445.13 200.67 445.66C202.329 447.152 204.151 448.453 206.1 449.54C207.443 450.291 208.844 450.933 210.29 451.46C211.07 451.75 211.89 452 212.74 452.24C213.59 452.48 214.54 452.81 215.22 452.43C215.379 452.323 215.498 452.168 215.559 451.987C215.621 451.806 215.621 451.61 215.56 451.43C215.442 450.989 215.242 450.575 214.97 450.21C214.42 449.4 213.86 448.57 213.28 447.73C212.133 446.03 210.95 444.283 209.73 442.49L208.63 440.86L207.63 439.46L209 440.5C213.313 443.911 218.393 446.218 223.8 447.22C224.504 447.407 225.238 447.455 225.96 447.36C226.265 447.32 226.543 447.165 226.738 446.927C226.933 446.69 227.03 446.386 227.01 446.08C226.941 445.474 226.75 444.889 226.45 444.36C226.19 443.83 225.94 443.36 225.71 442.85L224.54 440.44L223.82 438.9C223.719 438.728 223.641 438.543 223.59 438.35Z" fill="#263238"/>
<g opacity="0.3">
<path d="M223.53 381.78C225.74 385.509 228.975 388.526 232.85 390.47C232.629 388.415 231.776 386.48 230.41 384.93C234.63 388.949 239.63 392.06 245.1 394.07C242.771 395.107 240.228 395.576 237.682 395.438C235.136 395.299 232.66 394.558 230.456 393.275C228.253 391.992 226.386 390.203 225.01 388.057C223.634 385.91 222.787 383.467 222.54 380.93" fill="black"/>
</g>
<g opacity="0.3">
<path d="M196.77 316.608C204.71 331.878 230.39 339.418 250.53 339.748C256.75 339.838 265.53 344.438 271.69 343.838C285.52 342.508 296.75 335.058 310.61 333.838C319.24 333.108 327.92 332.838 336.45 331.388C344.98 329.938 344.59 328.928 351.37 323.538C358.15 318.148 365.48 312.808 365.37 304.148C352.63 319.748 340.04 324.578 320.43 329.148C300.82 333.718 280.43 333.618 260.32 332.688C238.19 331.688 214.96 329.248 196.77 316.598" fill="black"/>
</g>
<path d="M265.09 199.488C265.18 199.488 265.26 200.618 265.56 202.408C265.956 204.738 266.593 207.02 267.46 209.218C268.347 211.412 269.456 213.51 270.77 215.478C271.368 216.262 271.926 217.077 272.44 217.918C272.44 217.918 272.21 217.748 271.86 217.368C271.362 216.838 270.898 216.277 270.47 215.688C269.047 213.754 267.875 211.647 266.98 209.418C266.083 207.173 265.485 204.819 265.2 202.418C265.106 201.699 265.052 200.974 265.04 200.248C265.02 199.994 265.037 199.738 265.09 199.488Z" fill="#FF725E"/>
<path d="M271.62 196.999C271.71 196.999 271.31 197.999 270.92 199.669C270.427 201.826 270.262 204.044 270.43 206.249C270.61 208.451 271.126 210.613 271.96 212.659C272.6 214.239 273.15 215.149 273.07 215.189C272.99 215.229 272.88 214.999 272.61 214.599C272.234 214.028 271.9 213.429 271.61 212.809C269.691 208.666 269.318 203.973 270.56 199.579C270.738 198.922 270.969 198.28 271.25 197.659C271.46 197.179 271.59 196.939 271.62 196.999Z" fill="#FF725E"/>
<path d="M149.23 363.198C149.349 363.054 149.483 362.923 149.63 362.808C149.9 362.568 150.29 362.188 150.84 361.808C152.377 360.587 154.001 359.481 155.7 358.498C161.344 355.3 167.487 353.075 173.87 351.918C180.234 350.76 186.682 350.117 193.15 349.998C195.63 349.938 197.63 349.918 199.01 349.918H200.61C200.796 349.902 200.984 349.902 201.17 349.918C200.987 349.964 200.799 349.987 200.61 349.988L199.02 350.068L193.16 350.318C186.724 350.523 180.31 351.192 173.97 352.318C167.64 353.474 161.534 355.628 155.88 358.698C154.182 359.653 152.543 360.709 150.97 361.858C149.86 362.748 149.26 363.228 149.23 363.198Z" fill="#FF725E"/>
<path d="M292.58 201.34C292.58 201.43 290.87 200.86 288.09 200.18C286.474 199.782 284.815 199.584 283.15 199.59C281.128 199.604 279.147 200.167 277.42 201.22C276.543 201.766 275.779 202.475 275.17 203.31C274.622 204.099 274.238 204.99 274.04 205.93C273.754 207.559 273.826 209.231 274.25 210.83C274.94 213.59 275.68 215.23 275.58 215.27C275.353 214.916 275.168 214.536 275.03 214.14C274.576 213.094 274.195 212.018 273.89 210.92C273.402 209.272 273.293 207.535 273.57 205.84C273.766 204.829 274.168 203.869 274.75 203.02C275.394 202.123 276.206 201.359 277.14 200.77C278.949 199.674 281.025 199.099 283.14 199.11C284.831 199.126 286.513 199.368 288.14 199.83C289.53 200.2 290.63 200.58 291.39 200.83C291.803 200.959 292.201 201.13 292.58 201.34Z" fill="#FF725E"/>
<path d="M442.61 451.939C441.53 444.759 438.01 437.689 432 433.599C425.99 429.509 417.34 429.029 411.62 433.519L387.88 465.619L438.42 465.829C441.24 463.219 443.18 455.739 442.61 451.939Z" fill="#EA2845"/>
<g opacity="0.3">
<path d="M409 465.159C413.27 463.379 416.42 459.549 418.36 455.349C420.3 451.149 421.15 446.549 422 441.999C422.7 438.229 423.36 434.159 421.72 430.679C421.329 430.658 420.938 430.739 420.588 430.914C420.237 431.09 419.938 431.353 419.72 431.679C419.281 432.343 418.96 433.077 418.77 433.849C414.86 446.189 408.83 456.849 398.98 465.199" fill="black"/>
</g>
<g opacity="0.3">
<path d="M258.88 214.408C263.88 228.818 264.51 244.408 263.97 259.598C263.7 267.178 263.13 274.838 260.76 282.048C258.39 289.258 254.04 296.048 247.58 300.048C241.48 303.818 233.94 304.808 226.82 303.868C219.7 302.928 212.94 300.198 206.53 296.978C199.21 293.298 192.16 288.898 186.48 282.978C180.8 277.058 176.14 268.788 175.2 260.658L185.74 261.808C185.74 261.808 193.85 260.948 206.46 248.748C220.24 235.428 222.75 233.798 233.07 226.858C241.074 221.565 249.755 217.378 258.88 214.408Z" fill="white"/>
</g>
<g opacity="0.3">
<path d="M302.44 303.229C304.433 302.105 306.74 301.663 309.008 301.972C311.275 302.281 313.38 303.322 315 304.939C316.604 302.842 318.774 301.247 321.255 300.344C323.736 299.44 326.423 299.265 329 299.839C325.875 301.068 322.965 302.786 320.38 304.929C317.91 307.199 316.13 310.459 316.44 313.799C313.35 310.47 309.797 307.604 305.89 305.289C304.27 304.289 302.14 303.479 300.62 304.599" fill="black"/>
</g>
<path d="M336.88 415.889C331.075 420.055 326.796 426.011 324.699 432.841C322.602 439.672 322.803 447.002 325.27 453.709" fill="#EA2845"/>
<path d="M325.27 453.709C325.188 453.589 325.124 453.458 325.08 453.319C324.98 453.049 324.81 452.669 324.64 452.149C324.153 450.704 323.782 449.223 323.53 447.719C322.657 442.73 322.976 437.605 324.462 432.763C325.948 427.921 328.559 423.5 332.08 419.859C333.132 418.767 334.273 417.764 335.49 416.859C335.91 416.529 336.27 416.299 336.49 416.139C336.71 415.979 336.86 415.909 336.87 415.929C336.467 416.315 336.043 416.679 335.6 417.019C334.449 417.993 333.36 419.038 332.34 420.149C328.936 423.803 326.407 428.183 324.941 432.956C323.476 437.73 323.113 442.775 323.88 447.709C324.102 449.201 324.42 450.677 324.83 452.129C325.012 452.645 325.159 453.173 325.27 453.709Z" fill="#263238"/>
<path d="M356.77 381.27C360.86 378.13 366.14 374.83 370.77 377.04C372.052 377.743 373.152 378.737 373.981 379.942C374.809 381.148 375.343 382.531 375.54 383.98C375.9 386.882 375.717 389.825 375 392.66C371.642 409.201 364.346 424.688 353.73 437.81C349.88 442.57 344.4 447.39 338.42 446.08C332.84 444.85 329.67 438.47 330 432.76C330.33 427.05 333.21 421.86 335.88 416.76C342.22 404.76 348.38 391.6 356.74 381.23" fill="#EA2845"/>
<path d="M356.77 381.269C356.69 381.4 356.604 381.527 356.51 381.649L355.71 382.719C355 383.659 353.97 385.069 352.71 386.919C349.225 392.193 346.034 397.654 343.15 403.279L337.15 414.919C335.03 419.119 332.36 423.459 330.97 428.539C330.223 431.119 330.083 433.836 330.56 436.479C331.063 439.23 332.425 441.751 334.45 443.679C335.499 444.625 336.757 445.31 338.12 445.679C339.516 446.04 340.977 446.078 342.39 445.789C345.282 445.043 347.921 443.534 350.03 441.419C352.188 439.331 354.153 437.051 355.9 434.609C357.7 432.249 359.32 429.809 360.9 427.389C366.5 418.447 370.737 408.72 373.47 398.529C374.07 396.262 374.583 394.056 375.01 391.909C375.462 389.875 375.667 387.793 375.62 385.709C375.5 381.779 373.44 378.209 370.51 377.019C369.163 376.45 367.683 376.273 366.24 376.509C365.023 376.714 363.84 377.081 362.72 377.599C361.17 378.334 359.687 379.204 358.29 380.199L357.19 380.979C356.95 381.149 356.81 381.229 356.81 381.229L357.16 380.939C357.4 380.739 357.75 380.469 358.23 380.119C359.606 379.079 361.079 378.175 362.63 377.419C363.759 376.868 364.961 376.481 366.2 376.269C367.805 375.973 369.462 376.191 370.936 376.891C372.41 377.591 373.625 378.738 374.41 380.169C375.377 381.853 375.916 383.748 375.98 385.689C376.048 387.801 375.857 389.914 375.41 391.979C374.98 394.139 374.48 396.359 373.89 398.639C371.177 408.878 366.947 418.653 361.34 427.639C359.78 430.079 358.15 432.519 356.34 434.899C354.574 437.369 352.59 439.675 350.41 441.789C348.233 443.969 345.506 445.521 342.52 446.279C341.03 446.582 339.49 446.537 338.02 446.149C336.574 445.75 335.244 445.013 334.14 443.999C332.046 441.994 330.644 439.374 330.14 436.519C329.648 433.803 329.795 431.009 330.57 428.359C332 423.179 334.7 418.839 336.82 414.659C338.94 410.479 341.04 406.599 342.9 403.049C345.816 397.429 349.062 391.986 352.62 386.749C353.9 384.909 354.96 383.519 355.69 382.599L356.54 381.599C356.612 381.486 356.688 381.376 356.77 381.269Z" fill="#263238"/>
<g opacity="0.3">
<path d="M357.27 395.528V395.578C358.27 392.758 360.4 391.948 362.69 391.118C364.98 390.288 367.75 390.378 369.59 391.978C371.71 393.818 371.98 397.058 371.41 399.808C371.275 400.78 370.878 401.696 370.26 402.458C369.941 402.828 369.511 403.087 369.035 403.197C368.558 403.306 368.059 403.261 367.61 403.068C366.61 402.518 366.3 401.068 365.24 400.628C364.18 400.188 362.78 401.178 361.5 401.498C360.624 401.667 359.717 401.529 358.932 401.106C358.146 400.683 357.531 400.002 357.19 399.178C356.96 398.595 356.849 397.972 356.863 397.345C356.877 396.718 357.015 396.101 357.27 395.528Z" fill="black"/>
</g>
<g opacity="0.3">
<path d="M361.63 381.448C362.144 381.677 362.572 382.062 362.854 382.549C363.136 383.036 363.257 383.599 363.2 384.158C363.15 385.414 362.876 386.65 362.39 387.808C362.04 388.808 361.45 389.918 360.39 389.958C360.093 389.95 359.802 389.866 359.547 389.714C359.291 389.561 359.079 389.346 358.93 389.088C358.643 388.566 358.482 387.984 358.46 387.388C358.36 386.025 358.572 384.657 359.08 383.388C359.299 382.727 359.71 382.146 360.26 381.718C360.538 381.508 360.877 381.395 361.225 381.395C361.573 381.395 361.912 381.508 362.19 381.718" fill="black"/>
</g>
<g opacity="0.3">
<path d="M373.61 383.91C374.124 384.139 374.552 384.524 374.834 385.01C375.116 385.497 375.237 386.06 375.18 386.62C375.129 387.875 374.855 389.111 374.37 390.27C374.02 391.27 373.42 392.38 372.37 392.42C372.072 392.413 371.782 392.329 371.526 392.176C371.27 392.024 371.058 391.808 370.91 391.55C370.614 391.031 370.452 390.447 370.44 389.85C370.342 388.488 370.551 387.121 371.05 385.85C371.273 385.188 371.687 384.606 372.24 384.18C372.517 383.968 372.856 383.854 373.205 383.854C373.554 383.854 373.893 383.968 374.17 384.18" fill="black"/>
</g>
<g opacity="0.3">
<path d="M368.55 379.33C369.062 379.564 369.488 379.952 369.769 380.439C370.051 380.926 370.173 381.489 370.12 382.05C370.065 383.301 369.791 384.533 369.31 385.69C368.95 386.69 368.36 387.81 367.31 387.84C367.012 387.833 366.722 387.749 366.466 387.596C366.21 387.444 365.998 387.228 365.85 386.97C365.562 386.452 365.404 385.872 365.39 385.28C365.282 383.917 365.49 382.548 366 381.28C366.218 380.615 366.633 380.032 367.19 379.61C367.466 379.4 367.803 379.287 368.15 379.287C368.497 379.287 368.834 379.4 369.11 379.61" fill="black"/>
</g>
<g opacity="0.3">
<path d="M364.67 420.209C363.872 426.26 362.226 432.168 359.78 437.759C357.314 443.373 353.543 448.317 348.78 452.179C346.58 453.899 344 455.379 341.21 455.449C337.26 455.549 333.66 452.719 331.88 449.189C330.1 445.659 329.88 441.559 330.06 437.619C331.97 440.809 334.12 444.209 337.58 445.619C339.109 446.132 340.731 446.308 342.334 446.135C343.938 445.962 345.485 445.445 346.87 444.619C349.63 442.947 352.044 440.761 353.98 438.179C358.265 432.949 361.786 427.138 364.44 420.919" fill="black"/>
</g>
<path d="M140.7 382.069C135.78 380.559 129.7 379.309 126.08 383.009C125.131 384.122 124.457 385.442 124.109 386.862C123.762 388.283 123.752 389.764 124.08 391.189C124.756 394.036 125.956 396.732 127.62 399.139C136.559 413.456 148.81 425.412 163.34 433.999C168.61 437.099 175.43 439.699 180.57 436.369C185.38 433.269 186.1 426.179 183.8 420.949C181.5 415.719 177 411.829 172.69 407.999C162.55 398.999 152.17 388.819 140.69 381.999" fill="#EA2845"/>
<path d="M140.7 382.07C140.7 382.07 140.84 382.13 141.11 382.28L142.26 382.96C143.26 383.57 144.75 384.5 146.6 385.77C151.765 389.432 156.711 393.396 161.41 397.64L171.18 406.38C174.63 409.55 178.68 412.67 181.83 417.02C183.487 419.228 184.606 421.793 185.1 424.51C185.613 427.367 185.211 430.314 183.95 432.93C183.265 434.262 182.279 435.416 181.07 436.3C179.827 437.182 178.396 437.764 176.89 438C173.815 438.345 170.704 437.847 167.89 436.56C165.099 435.343 162.422 433.88 159.89 432.19C157.37 430.59 154.98 428.87 152.67 427.14C148.287 423.752 144.174 420.027 140.37 416C136.909 412.353 133.715 408.463 130.81 404.36C129.46 402.43 128.21 400.52 127.06 398.65C125.914 396.873 124.99 394.962 124.31 392.96C123.691 391.119 123.533 389.155 123.85 387.24C124.083 385.625 124.82 384.125 125.954 382.953C127.089 381.78 128.564 380.996 130.17 380.71C131.406 380.481 132.668 380.42 133.92 380.53C135.638 380.702 137.335 381.037 138.99 381.53C139.56 381.69 139.99 381.82 140.27 381.92L140.7 382.08L140.26 381.97L138.96 381.63C137.302 381.189 135.609 380.891 133.9 380.74C132.669 380.649 131.431 380.723 130.22 380.96C128.783 381.25 127.458 381.944 126.4 382.96C124.07 385.11 123.4 389.17 124.66 392.89C125.344 394.857 126.264 396.734 127.4 398.48C128.56 400.34 129.813 402.23 131.16 404.15C137.293 412.735 144.671 420.358 153.05 426.77C155.35 428.5 157.73 430.21 160.24 431.77C162.734 433.445 165.375 434.891 168.13 436.09C170.842 437.338 173.842 437.828 176.81 437.51C178.25 437.29 179.62 436.739 180.81 435.9C181.957 435.068 182.89 433.974 183.53 432.71C184.749 430.196 185.141 427.36 184.65 424.61C184.176 421.966 183.091 419.469 181.48 417.32C178.4 413.04 174.38 409.91 170.93 406.72L161.21 397.93C156.539 393.661 151.635 389.655 146.52 385.93C144.7 384.63 143.24 383.68 142.25 383.04L141.12 382.32L140.7 382.07Z" fill="#263238"/>
<g opacity="0.3">
<path d="M145.24 395.59C143.31 393.3 141.04 393.28 138.6 393.31C136.16 393.34 133.6 394.4 132.44 396.53C131.1 399.01 131.98 402.13 133.44 404.53C133.899 405.394 134.592 406.112 135.44 406.6C135.866 406.839 136.358 406.934 136.843 406.871C137.328 406.808 137.779 406.59 138.13 406.25C138.88 405.38 138.67 403.93 139.49 403.13C140.31 402.33 142 402.78 143.3 402.64C144.179 402.491 144.98 402.044 145.569 401.374C146.157 400.704 146.497 399.851 146.53 398.96C146.557 397.711 146.094 396.502 145.24 395.59Z" fill="black"/>
</g>
<g opacity="0.3">
<path d="M136.21 383.93C135.809 384.326 135.543 384.839 135.45 385.396C135.357 385.952 135.441 386.524 135.69 387.03C136.167 388.183 136.844 389.243 137.69 390.16C138.36 390.95 139.32 391.81 140.3 391.48C140.576 391.368 140.819 391.187 141.005 390.954C141.19 390.721 141.313 390.444 141.36 390.15C141.45 389.563 141.399 388.963 141.21 388.4C140.818 387.084 140.135 385.874 139.21 384.859C138.773 384.313 138.18 383.911 137.51 383.71C137.175 383.617 136.819 383.637 136.496 383.765C136.173 383.893 135.901 384.123 135.72 384.42" fill="black"/>
</g>
<g opacity="0.3">
<path d="M125.86 390.44C125.46 390.835 125.195 391.346 125.101 391.901C125.008 392.455 125.092 393.025 125.34 393.53C125.816 394.683 126.493 395.743 127.34 396.66C128.02 397.45 128.97 398.31 129.96 397.98C130.235 397.866 130.477 397.685 130.662 397.452C130.848 397.219 130.971 396.943 131.02 396.65C131.107 396.062 131.052 395.462 130.86 394.9C130.472 393.582 129.788 392.371 128.86 391.359C128.423 390.813 127.83 390.411 127.16 390.21C126.825 390.117 126.469 390.137 126.146 390.265C125.823 390.393 125.551 390.623 125.37 390.92" fill="black"/>
</g>
<g opacity="0.3">
<path d="M129 384.379C128.6 384.774 128.335 385.285 128.241 385.84C128.148 386.395 128.232 386.964 128.48 387.469C128.956 388.623 129.633 389.682 130.48 390.599C131.16 391.389 132.11 392.249 133.1 391.919C133.376 391.807 133.618 391.625 133.804 391.392C133.989 391.159 134.112 390.883 134.16 390.589C134.247 390.001 134.192 389.401 134 388.839C133.612 387.522 132.928 386.311 132 385.299C131.563 384.752 130.97 384.351 130.3 384.149C129.965 384.057 129.609 384.076 129.286 384.205C128.963 384.333 128.691 384.562 128.51 384.859" fill="black"/>
</g>
<g opacity="0.3">
<path d="M147 421.299C149.857 426.675 153.456 431.624 157.69 435.999C161.947 440.402 167.197 443.722 173 445.679C175.66 446.529 178.59 447.009 181.23 446.099C184.97 444.809 187.34 440.899 187.77 436.969C188.2 433.039 187 429.109 185.42 425.489C184.75 429.149 183.93 433.089 181.17 435.589C179.928 436.606 178.48 437.342 176.927 437.746C175.373 438.15 173.75 438.212 172.17 437.929C168.998 437.333 165.97 436.135 163.25 434.399C157.409 430.996 152.077 426.788 147.41 421.899" fill="black"/>
</g>
<g opacity="0.3">
<path d="M143.28 415.868C142.99 416.268 142.7 416.678 142.42 417.088C143.655 415.096 145.281 413.375 147.2 412.029C149.119 410.683 151.29 409.74 153.584 409.257C155.877 408.774 158.245 408.761 160.544 409.219C162.842 409.676 165.024 410.595 166.958 411.92C168.891 413.245 170.536 414.947 171.793 416.926C173.05 418.904 173.893 421.117 174.271 423.43C174.649 425.743 174.554 428.109 173.991 430.384C173.429 432.659 172.412 434.797 171 436.668C159.758 432.072 149.58 425.213 141.1 416.518" fill="white"/>
</g>
<path d="M425.6 406C425.608 406.224 425.591 406.449 425.55 406.67C425.48 407.17 425.39 407.8 425.29 408.59C425.06 410.26 424.67 412.66 424.12 415.59C422.759 423.327 420.711 430.927 418 438.3C416.442 442.345 414.559 446.258 412.37 450C411.86 450.86 411.31 451.66 410.81 452.46L410.05 453.63L409.24 454.72L407.7 456.77C407.17 457.4 406.64 457.99 406.14 458.55C405.64 459.11 405.19 459.68 404.69 460.14L403.31 461.47L402.1 462.62L401 463.49L399.47 464.69C399.301 464.841 399.113 464.969 398.91 465.07C399.061 464.901 399.225 464.744 399.4 464.6L400.87 463.34L401.93 462.44L403.1 461.26L404.45 459.92C404.94 459.45 405.37 458.87 405.86 458.31L407.38 456.52L408.89 454.46L409.68 453.38C409.93 453 410.17 452.61 410.42 452.21C410.92 451.41 411.42 450.61 411.96 449.76C414.09 446.026 415.932 442.134 417.47 438.12C420.18 430.785 422.283 423.239 423.76 415.56C424.35 412.62 424.76 410.23 425.09 408.56C425.23 407.78 425.35 407.15 425.44 406.66C425.477 406.436 425.53 406.216 425.6 406Z" fill="#263238"/>
<path d="M195.54 345.34C195.671 345.16 195.826 344.998 196 344.86L197.39 343.56C198 342.99 198.75 342.31 199.65 341.56C200.55 340.81 201.55 339.9 202.71 338.98C205 337.09 207.81 334.98 211.02 332.68C214.23 330.38 217.86 328.09 221.78 325.81C225.7 323.53 229.55 321.57 233.09 319.89C236.63 318.21 239.91 316.89 242.69 315.82C244.07 315.27 245.34 314.82 246.45 314.44C247.56 314.06 248.53 313.73 249.32 313.49L251.15 312.93C251.357 312.853 251.571 312.799 251.79 312.77C251.594 312.872 251.39 312.959 251.18 313.03L249.38 313.68C248.6 313.95 247.65 314.29 246.55 314.68C245.45 315.07 244.19 315.55 242.82 316.12C240.07 317.21 236.82 318.62 233.3 320.29C229.78 321.96 226 324 222 326.24C218 328.48 214.48 330.84 211.25 333.06C208.02 335.28 205.25 337.4 202.9 339.25C201.73 340.15 200.71 341.02 199.8 341.77C198.89 342.52 198.11 343.16 197.49 343.71L196.03 344.94C195.883 345.091 195.718 345.226 195.54 345.34Z" fill="#263238"/>
<path d="M167.39 328.639C167.39 328.639 167.45 328.589 167.57 328.499L168.13 328.119L170.33 326.719C171.28 326.109 172.45 325.379 173.85 324.589C175.25 323.799 176.85 322.839 178.61 321.919L181.41 320.429C182.41 319.919 183.41 319.429 184.5 318.909C186.62 317.839 188.96 316.839 191.4 315.749C196.33 313.669 201.83 311.589 207.73 309.749C213.63 307.909 219.36 306.579 224.61 305.539C227.24 305.069 229.74 304.589 232.1 304.279C233.27 304.119 234.41 303.929 235.5 303.809L238.66 303.459C240.66 303.219 242.49 303.119 244.09 302.999C245.69 302.879 247.09 302.809 248.21 302.779L250.81 302.709H251.48C251.559 302.693 251.641 302.693 251.72 302.709H251.49L250.81 302.769L248.22 302.939C247.09 302.999 245.71 303.079 244.12 303.239C242.53 303.399 240.7 303.509 238.7 303.779L235.55 304.159C234.46 304.289 233.33 304.489 232.16 304.659C229.81 304.979 227.32 305.479 224.7 305.959C219.48 307.029 213.77 308.409 207.88 310.199C201.99 311.989 196.51 314.079 191.59 316.129C189.15 317.199 186.81 318.189 184.69 319.239C183.62 319.759 182.57 320.239 181.59 320.729L178.78 322.189C176.98 323.089 175.4 324.009 174 324.779C172.6 325.549 171.4 326.249 170.43 326.829L168.19 328.149L167.6 328.479C167.47 328.619 167.39 328.649 167.39 328.639Z" fill="#263238"/>
<path d="M286.56 295.68C286.62 295.83 284.04 296.92 281.19 298.83C278.34 300.74 276.33 302.69 276.19 302.57C278.921 299.348 282.505 296.96 286.53 295.68H286.56Z" fill="#263238"/>
<path d="M303.48 301.109C303.48 301.209 302 300.539 299.55 299.919C296.358 299.086 293.051 298.782 289.76 299.019C286.468 299.157 283.246 300.014 280.32 301.529C279.155 302.23 278.153 303.171 277.38 304.289C277.482 303.926 277.655 303.586 277.89 303.289C278.497 302.46 279.257 301.754 280.13 301.209C282.31 299.779 285.82 298.789 289.72 298.489C293.067 298.247 296.43 298.606 299.65 299.549C300.621 299.821 301.573 300.155 302.5 300.549C302.846 300.7 303.175 300.888 303.48 301.109Z" fill="#263238"/>
<path d="M270.62 309.448L271.79 312.248C272.136 312.973 272.372 313.745 272.49 314.538C272.546 314.937 272.517 315.344 272.403 315.73C272.289 316.116 272.094 316.474 271.83 316.778C271.38 317.159 270.817 317.381 270.229 317.412C269.64 317.443 269.057 317.28 268.57 316.948C267.623 316.247 266.923 315.263 266.57 314.138C266.15 313.038 265.87 311.878 265.36 310.818C266.008 310.227 266.498 309.482 266.782 308.652C267.067 307.822 267.139 306.933 266.99 306.068C266.99 306.068 268 309.268 270.62 309.448Z" fill="#F5F5F5"/>
<path d="M254.29 299.249C255.176 297.465 256.424 295.886 257.955 294.612C259.485 293.337 261.265 292.397 263.18 291.849C269.56 290.169 276.18 296.849 276.18 296.849C276.18 296.849 268.47 294.579 268.58 298.409C268.69 302.239 270.96 302.149 268.4 304.669C265.84 307.189 261.45 304.539 260.4 301.569L258.34 298.669L254.29 299.249Z" fill="#181B1E"/>
<path d="M280.71 303C280.71 303 280.71 303.13 280.76 303.36C280.794 303.709 280.794 304.061 280.76 304.41C280.577 305.691 280.06 306.902 279.26 307.92C278.676 308.693 277.942 309.339 277.102 309.821C276.261 310.302 275.332 310.608 274.37 310.72C273.182 310.811 271.99 310.619 270.89 310.163C269.79 309.706 268.814 308.995 268.04 308.09C267.274 307.21 266.735 306.156 266.47 305.02L266.96 304.88C267.261 305.821 267.342 306.819 267.199 307.796C267.055 308.774 266.689 309.705 266.13 310.52C265.374 311.579 264.303 312.374 263.071 312.792C261.838 313.211 260.505 313.231 259.26 312.85C258.998 312.77 258.743 312.667 258.5 312.54C258.34 312.45 258.26 312.4 258.26 312.38C258.26 312.36 258.63 312.52 259.31 312.68C260.271 312.899 261.269 312.899 262.23 312.68C263.671 312.355 264.933 311.493 265.76 310.27C266.265 309.508 266.592 308.642 266.716 307.737C266.841 306.832 266.76 305.91 266.48 305.04L266.97 304.91C267.225 305.961 267.729 306.935 268.44 307.75C269.161 308.595 270.068 309.261 271.09 309.695C272.112 310.128 273.222 310.319 274.33 310.25C275.236 310.151 276.113 309.874 276.911 309.435C277.709 308.996 278.412 308.403 278.98 307.69C279.774 306.732 280.317 305.591 280.56 304.37C280.69 303.53 280.66 303 280.71 303Z" fill="#263238"/>
<path d="M268.35 292.79C267.688 292.889 267.018 292.919 266.35 292.88C264.732 292.863 263.12 293.071 261.56 293.5C260.019 293.949 258.62 294.79 257.5 295.94C256.67 296.85 256.37 297.58 256.29 297.55C256.422 296.856 256.748 296.215 257.23 295.7C258.321 294.4 259.777 293.46 261.41 293C263.02 292.553 264.694 292.388 266.36 292.51C267.034 292.499 267.705 292.593 268.35 292.79Z" fill="white"/>
<path d="M270.27 317.64C269.305 316.019 268.578 314.267 268.11 312.44C267.485 310.662 267.121 308.802 267.03 306.92C267.18 306.92 267.71 309.34 268.61 312.29C269.51 315.24 270.41 317.58 270.27 317.64Z" fill="#263238"/>
<path d="M199.07 328.849C199.192 328.719 199.326 328.602 199.47 328.499L200.68 327.559C201.68 326.749 203.31 325.639 205.3 324.339C207.29 323.039 209.71 321.578 212.48 320.078C215.25 318.578 218.37 317.079 221.73 315.709C225.09 314.339 228.36 313.219 231.37 312.309C234.38 311.399 237.14 310.739 239.47 310.309C241.8 309.879 243.7 309.509 245.02 309.309L246.54 309.119C246.716 309.099 246.894 309.099 247.07 309.119C246.904 309.19 246.729 309.237 246.55 309.259L245.05 309.539C243.74 309.759 241.86 310.139 239.55 310.659C237.24 311.179 234.55 311.879 231.55 312.789C228.55 313.699 225.31 314.849 221.96 316.209C218.61 317.569 215.52 319.079 212.74 320.529C209.96 321.979 207.54 323.409 205.53 324.669C203.52 325.929 201.93 326.989 200.84 327.749L199.57 328.599C199.24 328.779 199.08 328.869 199.07 328.849Z" fill="#263238"/>
<path d="M249.178 284.798C252.066 272.683 244.587 260.521 232.472 257.633C220.358 254.745 208.196 262.224 205.307 274.338C202.419 286.453 209.898 298.615 222.013 301.503C234.127 304.391 246.29 296.912 249.178 284.798Z" fill="#F5F5F5"/>
<path d="M249.81 279.599C249.81 290.479 242.46 299.309 236.24 299.309C230.02 299.309 225 290.479 225 279.599C225 268.719 230 259.879 236.28 259.879C242.56 259.879 249.81 268.709 249.81 279.599Z" fill="#181B1E"/>
<path d="M241.24 272.31C243.372 272.31 245.1 270.582 245.1 268.45C245.1 266.318 243.372 264.59 241.24 264.59C239.108 264.59 237.38 266.318 237.38 268.45C237.38 270.582 239.108 272.31 241.24 272.31Z" fill="white"/>
<path d="M231.26 293.919C231.035 293.631 230.847 293.315 230.7 292.979C230.229 292.094 229.824 291.175 229.49 290.229C228.971 288.831 228.567 287.393 228.28 285.929C227.94 284.135 227.753 282.315 227.72 280.489C227.714 278.66 227.864 276.833 228.17 275.029C228.427 273.562 228.801 272.117 229.29 270.709C229.603 269.758 229.987 268.832 230.44 267.939C230.576 267.584 230.757 267.248 230.98 266.939C231.07 266.939 230.38 268.389 229.64 270.789C229.21 272.192 228.876 273.622 228.64 275.069C228.367 276.846 228.234 278.642 228.24 280.439C228.273 282.237 228.443 284.028 228.75 285.799C229.013 287.247 229.377 288.673 229.84 290.069C230.63 292.489 231.35 293.879 231.26 293.919Z" fill="white"/>
<path d="M221.53 250.879C221.47 251.609 220.63 252.169 219.53 252.689C218.43 253.209 216.94 253.689 215.47 254.359C214 255.029 212.71 255.609 211.61 256.109C210.51 256.609 209.61 256.909 208.96 256.519C208.31 256.129 208.23 255.039 208.96 253.589C209.946 251.76 211.552 250.342 213.49 249.589C215.345 248.772 217.417 248.582 219.39 249.049C220.8 249.429 221.59 250.179 221.53 250.879Z" fill="#0E0E10"/>
<path d="M113.91 442.999L118.98 435.059C143.12 461.579 222.88 493.119 294.29 421.829C324.96 391.209 322.48 339.469 322.48 339.469L316.38 320.309H322.48C322.48 320.309 340.16 352.919 321.65 395.619C321.65 395.619 302.65 446.229 244.48 464.619C152.72 493.599 113.91 442.999 113.91 442.999Z" fill="#FF725E"/>
<g opacity="0.7">
<path d="M113.91 442.999L118.98 435.059C143.12 461.579 222.88 493.119 294.29 421.829C324.96 391.209 322.48 339.469 322.48 339.469L316.38 320.309H322.48C322.48 320.309 340.16 352.919 321.65 395.619C321.65 395.619 302.65 446.229 244.48 464.619C152.72 493.599 113.91 442.999 113.91 442.999Z" fill="white"/>
</g>
<path d="M112.542 452.702C129.472 435.773 129.472 408.325 112.542 391.396C95.6132 374.467 68.1656 374.467 51.2363 391.396C34.3071 408.325 34.3071 435.773 51.2363 452.702C68.1655 469.631 95.6132 469.631 112.542 452.702Z" fill="#FF725E"/>
<g opacity="0.7">
<path d="M112.542 452.702C129.472 435.773 129.472 408.325 112.542 391.396C95.6132 374.467 68.1656 374.467 51.2363 391.396C34.3071 408.325 34.3071 435.773 51.2363 452.702C68.1655 469.631 95.6132 469.631 112.542 452.702Z" fill="white"/>
</g>
<path d="M92.2799 379.908C92.2567 380.186 92.2064 380.46 92.1299 380.728C92.0099 381.308 91.83 382.088 91.62 383.078C91.5 383.588 91.37 384.158 91.23 384.768C91.09 385.378 90.8699 386.038 90.6699 386.768C90.2399 388.188 89.8299 389.828 89.1699 391.578L88.1699 394.338C87.8299 395.338 87.3999 396.268 86.9899 397.288C86.2099 399.338 85.17 401.448 84.12 403.678C81.7141 408.466 78.967 413.075 75.9 417.468C72.7699 421.819 69.331 425.94 65.61 429.798C63.84 431.528 62.2 433.198 60.52 434.618C59.7 435.338 58.92 436.068 58.13 436.708L55.84 438.538C54.41 439.738 53 440.668 51.84 441.538C51.23 441.968 50.68 442.378 50.15 442.728L48.68 443.658L46.68 444.918C46.4519 445.08 46.2072 445.218 45.95 445.328C46.1625 445.147 46.3862 444.98 46.6199 444.828L48.6199 443.488L50.06 442.488C50.58 442.118 51.12 441.698 51.72 441.268C52.9 440.378 54.29 439.418 55.72 438.208L57.9799 436.368C58.7699 435.718 59.53 434.988 60.34 434.258C62 432.828 63.6299 431.148 65.3399 429.418C69.0058 425.571 72.4006 421.475 75.5 417.158C78.5547 412.788 81.3013 408.21 83.72 403.458C84.78 401.238 85.82 399.148 86.62 397.118C87.04 396.118 87.48 395.118 87.83 394.188C88.18 393.258 88.51 392.318 88.83 391.448C89.51 389.708 89.95 388.078 90.4 386.678C90.61 385.968 90.83 385.308 91 384.678C91.17 384.048 91.3 383.508 91.43 382.998C91.69 381.998 91.89 381.248 92.04 380.678C92.0982 380.415 92.1784 380.158 92.2799 379.908Z" fill="#FF725E"/>
<path d="M102.53 384.328C102.499 384.623 102.442 384.914 102.36 385.198C102.22 385.808 102.03 386.628 101.78 387.668C101.65 388.208 101.5 388.808 101.34 389.458C101.18 390.108 100.95 390.798 100.72 391.548C100.25 393.038 99.8 394.778 99.07 396.608L98 399.518C97.63 400.518 97.14 401.518 96.69 402.618C95.82 404.768 94.69 406.978 93.52 409.308C90.8613 414.316 87.8188 419.11 84.42 423.648C80.9677 428.138 77.1802 432.36 73.09 436.278C71.17 438.048 69.35 439.748 67.53 441.188C66.63 441.918 65.79 442.668 64.92 443.298L62.43 445.148C60.88 446.358 59.35 447.298 58.05 448.148C56.75 448.998 55.6 449.728 54.65 450.278L52.45 451.558C52.2002 451.716 51.9396 451.857 51.67 451.978C51.9001 451.79 52.1441 451.619 52.4 451.468L54.54 450.108C55.48 449.528 56.62 448.818 57.89 447.908C59.16 446.998 60.68 446.048 62.22 444.828L64.67 442.998C65.53 442.358 66.36 441.598 67.25 440.868C69.06 439.418 70.85 437.718 72.76 435.948C76.8051 432.017 80.5615 427.799 84 423.328C87.3795 418.816 90.4148 414.056 93.08 409.088C94.26 406.768 95.4 404.578 96.29 402.438C96.74 401.378 97.29 400.378 97.61 399.368C97.93 398.358 98.36 397.368 98.71 396.488C99.46 394.658 99.93 392.948 100.43 391.488C100.67 390.738 100.92 390.048 101.1 389.408C101.28 388.768 101.43 388.178 101.57 387.638C101.86 386.638 102.08 385.798 102.25 385.198C102.326 384.903 102.419 384.612 102.53 384.328Z" fill="#FF725E"/>
<path d="M112 392.119C111.95 392.411 111.876 392.699 111.78 392.979C111.6 393.589 111.35 394.399 111.04 395.439C110.88 395.969 110.69 396.559 110.5 397.199C110.31 397.839 110.02 398.529 109.75 399.279C109.19 400.749 108.62 402.459 107.75 404.279L106.52 407.149C106.09 408.149 105.57 409.149 105.06 410.209C104.06 412.329 102.84 414.509 101.58 416.819C98.7352 421.756 95.5579 426.494 92.0701 430.999C88.4981 435.458 84.6222 439.665 80.4701 443.589C78.4701 445.359 76.6901 447.059 74.8401 448.509C73.9301 449.239 73.0801 449.979 72.2001 450.629L69.6901 452.489C68.1101 453.699 66.5801 454.649 65.2701 455.489C64.6101 455.919 64.0001 456.339 63.4201 456.689L61.8301 457.629L59.6101 458.909C59.3563 459.066 59.0924 459.207 58.8201 459.329C59.0527 459.14 59.3002 458.969 59.5601 458.819L61.7201 457.459L63.2901 456.459C63.8601 456.099 64.4601 455.669 65.1101 455.229C66.4001 454.319 67.9101 453.359 69.4701 452.129C70.2701 451.529 71.1001 450.909 71.9601 450.249C72.8201 449.589 73.6601 448.849 74.5701 448.109C76.3901 446.659 78.2101 444.949 80.1401 443.189C84.2529 439.258 88.1013 435.058 91.6601 430.619C95.1615 426.139 98.3618 421.432 101.24 416.529C102.51 414.229 103.76 412.079 104.76 409.969C105.27 408.969 105.76 407.969 106.24 406.969C106.72 405.969 107.09 405.019 107.49 404.119C108.33 402.319 108.92 400.619 109.49 399.119C109.78 398.389 110.05 397.709 110.28 397.069C110.51 396.429 110.69 395.849 110.87 395.319C111.22 394.319 111.5 393.499 111.7 392.899C111.782 392.632 111.882 392.372 112 392.119Z" fill="#FF725E"/>
<path d="M123.37 433.249C123.02 433.161 122.684 433.026 122.37 432.849C121.77 432.569 120.9 432.129 119.84 431.579C117.72 430.479 114.84 428.879 111.69 426.999C108.54 425.119 105.8 423.309 103.83 421.949C102.83 421.269 102.06 420.709 101.52 420.299C101.228 420.112 100.959 419.89 100.72 419.639C101.047 419.764 101.357 419.932 101.64 420.139L104.03 421.639C106.03 422.919 108.84 424.639 111.96 426.549C115.08 428.459 117.96 430.079 120.02 431.259L122.47 432.669C122.797 432.817 123.1 433.012 123.37 433.249Z" fill="#FF725E"/>
<path d="M125.2 423.87C124.192 423.303 123.223 422.668 122.3 421.97C120.53 420.76 118.07 419.12 115.3 417.42C112.53 415.72 109.92 414.3 108.04 413.26C107 412.745 105.997 412.157 105.04 411.5C105.348 411.571 105.645 411.685 105.92 411.84C106.47 412.08 107.25 412.45 108.21 412.93C110.13 413.93 112.76 415.28 115.57 416.98C118.38 418.68 120.81 420.38 122.57 421.67C123.43 422.32 124.12 422.85 124.57 423.24C125.02 423.63 125.23 423.85 125.2 423.87Z" fill="#FF725E"/>
<path d="M98.49 461.2C98.34 461.2 98 453.26 97.73 443.45C97.46 433.64 97.35 425.68 97.49 425.68C97.63 425.68 97.97 433.62 98.25 443.43C98.53 453.24 98.63 461.2 98.49 461.2Z" fill="#FF725E"/>
<path d="M77.12 466.169C76.8565 462.866 76.7697 459.551 76.86 456.239C76.7695 452.926 76.8563 449.612 77.12 446.309C77.3777 449.612 77.4645 452.926 77.38 456.239C77.4642 459.551 77.3774 462.865 77.12 466.169Z" fill="#FF725E"/>
<path d="M87.62 464.999C87.48 464.999 87.4 458.499 87.46 450.489C87.52 442.479 87.67 435.969 87.82 435.969C87.97 435.969 88.03 442.469 87.98 450.489C87.93 458.509 87.76 464.999 87.62 464.999Z" fill="#FF725E"/>
<path d="M65.46 429.789C65.38 429.909 59.72 426.259 52.83 421.629C45.94 416.999 40.4 413.149 40.48 412.999C40.56 412.849 46.22 416.529 53.12 421.159C60.02 425.789 65.54 429.669 65.46 429.789Z" fill="#FF725E"/>
<path d="M57.91 436C57.61 435.954 57.3195 435.859 57.05 435.72C56.52 435.51 55.75 435.17 54.82 434.72C52.4168 433.545 50.0799 432.24 47.82 430.81C45.16 429.13 42.82 427.46 41.2 426.22C40.281 425.592 39.4208 424.883 38.63 424.1C39.6006 424.642 40.5328 425.25 41.42 425.92C43.11 427.09 45.42 428.7 48.1 430.37C50.78 432.04 53.22 433.42 55.03 434.37C56.0211 434.856 56.9828 435.4 57.91 436Z" fill="#FF725E"/>
<path d="M83.9301 403.598C83.4407 403.834 82.9322 404.028 82.4101 404.178C81.8073 404.401 81.1931 404.591 80.5701 404.748C79.8501 404.948 79.0301 405.178 78.1101 405.368C75.9524 405.834 73.7683 406.168 71.5701 406.368C68.8771 406.608 66.1726 406.691 63.4701 406.618C60.768 406.521 58.0737 406.271 55.4001 405.868C53.2189 405.532 51.0587 405.071 48.9301 404.488C48.0201 404.258 47.2101 403.998 46.5001 403.768C45.7901 403.538 45.1701 403.328 44.6901 403.128C44.1692 402.959 43.6639 402.745 43.1801 402.488C43.7148 402.595 44.2399 402.746 44.7501 402.938C45.2501 403.108 45.8601 403.298 46.5801 403.488C47.3001 403.678 48.1101 403.928 49.0201 404.138C50.8401 404.608 53.0201 405.008 55.4701 405.398C58.1231 405.767 60.7933 406.001 63.4701 406.098C66.1386 406.167 68.8088 406.097 71.4701 405.888C73.6612 405.71 75.8411 405.413 78.0001 404.998C78.9301 404.838 79.7501 404.628 80.4701 404.458C81.1901 404.288 81.8201 404.128 82.3201 403.978C82.8429 403.799 83.3822 403.672 83.9301 403.598Z" fill="#FF725E"/>
<path d="M88.7201 392.379C88.2491 392.645 87.7575 392.872 87.25 393.059C86.77 393.279 86.1701 393.499 85.4701 393.749C84.7701 393.999 83.9701 394.289 83.0801 394.549C80.9807 395.193 78.8475 395.72 76.6901 396.129C74.0443 396.612 71.3734 396.946 68.6901 397.129C66.0057 397.288 63.3144 397.288 60.6301 397.129C58.44 396.988 56.2618 396.701 54.1101 396.269C53.1801 396.109 52.36 395.889 51.64 395.699C51.0241 395.548 50.4166 395.364 49.82 395.149C49.2987 394.997 48.7904 394.803 48.3 394.569C48.8381 394.647 49.3672 394.778 49.8801 394.959C50.3701 395.109 50.99 395.259 51.71 395.409C52.43 395.559 53.25 395.769 54.17 395.909C56.3174 396.28 58.4843 396.527 60.66 396.649C63.326 396.769 65.9966 396.746 68.6601 396.579C71.3218 396.379 73.9718 396.045 76.6 395.579C79.01 395.109 81.18 394.639 82.96 394.119C83.86 393.879 84.6601 393.619 85.3701 393.389C86.0801 393.159 86.68 392.979 87.17 392.789C87.6729 392.604 88.1918 392.467 88.7201 392.379Z" fill="#FF725E"/>
<path d="M91.68 382.5C91.2626 382.733 90.8197 382.918 90.36 383.05C89.5 383.38 88.23 383.81 86.66 384.29C82.5493 385.556 78.3467 386.502 74.09 387.12C69.8299 387.742 65.5232 387.987 61.22 387.85C59.57 387.78 58.22 387.68 57.32 387.57C56.8407 387.543 56.3651 387.469 55.9 387.35C56.379 387.307 56.861 387.307 57.34 387.35C58.25 387.4 59.58 387.44 61.23 387.46C65.5019 387.496 69.7706 387.212 74 386.61C78.2349 385.982 82.4264 385.09 86.55 383.94C88.13 383.5 89.41 383.13 90.29 382.86C90.7425 382.701 91.2074 382.581 91.68 382.5Z" fill="#FF725E"/>
<path d="M109.2 425.148C107.483 427.409 105.629 429.563 103.65 431.598C101.798 433.752 99.8175 435.793 97.72 437.708C99.4384 435.445 101.292 433.288 103.27 431.248C105.121 429.096 107.101 427.059 109.2 425.148Z" fill="#FF725E"/>
<path d="M117.52 430.069C117.412 430.37 117.26 430.653 117.07 430.909C116.75 431.439 116.25 432.169 115.6 433.059C112.187 437.681 107.827 441.52 102.81 444.319C101.81 444.849 101.06 445.249 100.5 445.499C100.221 445.654 99.9211 445.768 99.61 445.839C99.61 445.769 100.77 445.139 102.61 443.999C105.023 442.524 107.311 440.851 109.45 438.999C111.565 437.116 113.518 435.059 115.29 432.849C116.68 431.129 117.45 429.999 117.52 430.069Z" fill="#FF725E"/>
<path d="M120.05 434.51C119.865 436.476 119.27 438.382 118.304 440.104C117.338 441.826 116.022 443.327 114.44 444.51C115.696 443.042 116.84 441.481 117.86 439.84C118.72 438.119 119.452 436.338 120.05 434.51Z" fill="#FF725E"/>
<path d="M128.44 443.699C128.137 445.31 127.401 446.807 126.31 448.029C125.352 449.359 124.043 450.398 122.53 451.029C123.726 449.992 124.855 448.88 125.91 447.699C126.83 446.416 127.675 445.08 128.44 443.699Z" fill="#FF725E"/>
<path d="M142 452C142.047 453.728 141.596 455.432 140.7 456.91C139.95 458.467 138.757 459.768 137.27 460.65C138.388 459.409 139.392 458.071 140.27 456.65C140.982 455.154 141.561 453.598 142 452Z" fill="#FF725E"/>
<path d="M157.53 459.459C157.901 461.082 157.728 462.783 157.04 464.299C156.51 465.873 155.486 467.234 154.12 468.179C156.206 465.739 157.407 462.667 157.53 459.459Z" fill="#FF725E"/>
<path d="M171.87 472.248C171.72 472.198 172.32 470.248 172.46 467.808C172.6 465.368 172.25 463.358 172.4 463.328C173.357 466.262 173.167 469.449 171.87 472.248Z" fill="#FF725E"/>
<path d="M183.62 473.108C183.48 473.048 184.2 471.308 184.39 469.038C184.58 466.768 184.19 464.938 184.39 464.908C184.885 466.243 185.076 467.672 184.95 469.091C184.823 470.509 184.383 471.881 183.66 473.108H183.62Z" fill="#FF725E"/>
<path d="M200.06 472.999C199.91 472.999 200.15 471.289 199.88 469.239C199.61 467.189 198.97 465.619 199.11 465.559C199.869 466.621 200.316 467.875 200.4 469.179C200.65 470.458 200.533 471.783 200.06 472.999Z" fill="#FF725E"/>
<path d="M211.42 472C211.26 472 211.26 470.39 210.72 468.52C210.18 466.65 209.37 465.26 209.5 465.18C210.3 466.106 210.887 467.197 211.219 468.376C211.551 469.555 211.62 470.792 211.42 472Z" fill="#FF725E"/>
<path d="M224.75 469.07C224.59 469.07 224.67 467.5 224.08 465.71C223.49 463.92 222.54 462.71 222.67 462.59C223.556 463.391 224.215 464.413 224.58 465.55C224.946 466.688 225.004 467.902 224.75 469.07Z" fill="#FF725E"/>
<path d="M241.16 465.729C241 465.729 240.98 463.979 240.25 461.989C239.52 459.999 238.42 458.639 238.54 458.539C239.528 459.434 240.284 460.557 240.74 461.81C241.197 463.063 241.341 464.408 241.16 465.729Z" fill="#FF725E"/>
<path d="M255 460.329C254.85 460.329 254.3 458.559 253.12 456.579C251.94 454.599 250.63 453.239 250.74 453.129C253.029 454.896 254.553 457.472 255 460.329Z" fill="#FF725E"/>
<path d="M270.47 452.218C270.32 452.218 269.85 450.338 268.59 448.318C267.33 446.298 265.85 445.018 265.95 444.898C267.198 445.708 268.25 446.785 269.032 448.051C269.814 449.317 270.305 450.74 270.47 452.218Z" fill="#FF725E"/>
<path d="M285.58 441.389C284.921 440.223 284.183 439.103 283.37 438.039C282.435 437.082 281.432 436.193 280.37 435.379C281.729 435.76 282.927 436.574 283.78 437.699C284.76 438.704 285.391 439.998 285.58 441.389Z" fill="#FF725E"/>
<path d="M298.52 430.338C298.39 430.428 297.19 428.818 295.37 427.178C293.55 425.538 291.85 424.468 291.93 424.328C293.359 424.86 294.653 425.7 295.72 426.788C296.9 427.754 297.856 428.965 298.52 430.338Z" fill="#FF725E"/>
<path d="M310.11 415.928C309.98 416.008 308.98 414.388 307.22 412.928C305.46 411.468 303.71 410.728 303.77 410.578C305.163 410.935 306.456 411.603 307.554 412.531C308.652 413.46 309.526 414.624 310.11 415.938V415.928Z" fill="#FF725E"/>
<path d="M320.44 398.778C319.272 397.845 318.054 396.977 316.79 396.178C315.443 395.539 314.06 394.974 312.65 394.488C314.201 394.479 315.723 394.909 317.04 395.728C318.442 396.398 319.623 397.457 320.44 398.778Z" fill="#FF725E"/>
<path d="M326.72 380.248C324.019 378.682 320.916 377.952 317.8 378.148C319.342 377.701 320.973 377.66 322.536 378.028C324.098 378.395 325.54 379.16 326.72 380.248Z" fill="#FF725E"/>
<path d="M329.51 360.349C329.46 360.499 327.83 359.929 325.74 359.709C323.65 359.489 321.94 359.709 321.92 359.509C324.463 358.791 327.186 359.093 329.51 360.349Z" fill="#FF725E"/>
<path d="M328.48 340.42C327.538 340.539 326.588 340.579 325.64 340.54C324.702 340.661 323.756 340.708 322.81 340.68C324.602 339.89 326.624 339.797 328.48 340.42Z" fill="#FF725E"/>
<path d="M324.4 326.728C323.414 326.523 322.407 326.432 321.4 326.458C320.423 326.648 319.471 326.947 318.56 327.348C318.56 327.298 318.74 327.008 319.22 326.688C319.858 326.276 320.584 326.019 321.34 325.938C322.095 325.853 322.859 325.949 323.57 326.218C324.15 326.428 324.43 326.668 324.4 326.728Z" fill="#FF725E"/>
<g opacity="0.3">
<path d="M256.58 393.999C261.43 403.209 272.74 407.939 283.08 406.679C293.42 405.419 302.63 398.989 309.08 390.789C313.83 384.729 317.35 376.879 315.39 369.439C310.26 380.103 301.287 388.432 290.271 392.753C279.255 397.075 267.012 397.07 256 392.739" fill="black"/>
</g>
<path d="M317.1 314.75C314.777 311.169 313.925 306.829 314.722 302.636C315.519 298.442 317.904 294.718 321.38 292.24C324.14 290.24 327.47 289.17 330.08 287.01C331.676 285.61 332.976 283.905 333.903 281.995C334.831 280.085 335.367 278.009 335.48 275.89C335.673 271.636 334.73 267.408 332.75 263.64L335.53 262.27L335.77 262.57C337.616 264.993 338.901 267.796 339.534 270.776C340.166 273.757 340.131 276.84 339.429 279.805C338.727 282.769 337.376 285.542 335.474 287.922C333.572 290.302 331.167 292.231 328.43 293.57C326.348 294.525 324.39 295.731 322.6 297.16C319.13 300.16 320.55 303.57 320.55 303.57" fill="#FF725E"/>
<g opacity="0.7">
<path d="M317.1 314.75C314.777 311.169 313.925 306.829 314.722 302.636C315.519 298.442 317.904 294.718 321.38 292.24C324.14 290.24 327.47 289.17 330.08 287.01C331.676 285.61 332.976 283.905 333.903 281.995C334.831 280.085 335.367 278.009 335.48 275.89C335.673 271.636 334.73 267.408 332.75 263.64L335.53 262.27L335.77 262.57C337.616 264.993 338.901 267.796 339.534 270.776C340.166 273.757 340.131 276.84 339.429 279.805C338.727 282.769 337.376 285.542 335.474 287.922C333.572 290.302 331.167 292.231 328.43 293.57C326.348 294.525 324.39 295.731 322.6 297.16C319.13 300.16 320.55 303.57 320.55 303.57" fill="white"/>
</g>
<path d="M321 303.749C319.868 303.525 318.714 303.424 317.56 303.449C316.415 303.633 315.295 303.945 314.22 304.379C315.129 303.553 316.282 303.044 317.505 302.931C318.728 302.817 319.955 303.104 321 303.749Z" fill="#FF725E"/>
<path d="M323.62 296.118C323.48 296.168 323.04 295.298 322.22 294.478C321.4 293.658 320.54 293.198 320.59 293.058C320.64 292.918 321.68 293.188 322.59 294.108C323.5 295.028 323.75 296.078 323.62 296.118Z" fill="#FF725E"/>
<path d="M333.43 290.319C333.29 290.369 332.93 289.399 332.14 288.449C331.35 287.499 330.5 286.939 330.57 286.809C330.64 286.679 331.69 287.069 332.57 288.129C333.45 289.189 333.57 290.299 333.43 290.319Z" fill="#FF725E"/>
<path d="M340 277.878C339.235 277.825 338.476 277.708 337.73 277.528C336.964 277.511 336.201 277.427 335.45 277.278C336.199 276.997 337.006 276.904 337.8 277.009C338.594 277.113 339.349 277.412 340 277.878Z" fill="#FF725E"/>
<path d="M337.77 265.859C337.77 266.009 336.92 265.959 335.99 266.239C335.06 266.519 334.37 266.969 334.27 266.859C334.17 266.749 334.77 266.039 335.84 265.739C336.91 265.439 337.81 265.729 337.77 265.859Z" fill="#FF725E"/>
<path d="M245.21 339.889C248.75 337.589 253.44 338.349 257.46 339.679C261.48 341.009 265.51 342.849 269.72 342.449C274.31 342.019 278.24 338.959 281.27 335.499C285.014 331.221 287.799 326.192 289.44 320.749C291.1 315.209 291.95 308.699 296.72 305.419C301.49 302.139 308.11 303.789 312.21 307.669C316.31 311.549 318.29 317.149 319.59 322.669C322.59 335.389 322.64 348.959 318.52 361.369C314.4 373.779 305.93 384.899 294.43 391.119C282.93 397.339 268.43 398.229 256.73 392.409" fill="#EA2845"/>
<path d="M256.73 392.379C256.914 392.442 257.094 392.516 257.27 392.599L258.83 393.279C259.53 393.549 260.4 393.869 261.43 394.279C262.46 394.689 263.68 394.969 265.07 395.279C268.439 396.007 271.885 396.313 275.33 396.189C277.479 396.102 279.618 395.855 281.73 395.449C284.099 395.017 286.425 394.374 288.68 393.529C293.876 391.588 298.664 388.695 302.8 384.999C307.56 380.787 311.52 375.749 314.49 370.129C317.768 363.921 319.914 357.179 320.83 350.219C321.816 342.745 321.654 335.164 320.35 327.739C319.749 323.972 318.809 320.267 317.54 316.669C316.348 313.168 314.307 310.018 311.6 307.499C308.927 305.138 305.454 303.886 301.89 303.999C300.184 304.073 298.526 304.59 297.08 305.499C295.684 306.42 294.52 307.653 293.68 309.099C291.96 311.939 291.22 315.179 290.38 318.239C289.643 321.257 288.584 324.187 287.22 326.979C285.938 329.584 284.371 332.038 282.55 334.299C280.904 336.42 278.965 338.295 276.79 339.869C274.806 341.319 272.494 342.257 270.06 342.599C267.885 342.797 265.693 342.563 263.61 341.909C259.72 340.759 256.54 339.279 253.73 338.829C251.602 338.357 249.391 338.412 247.29 338.989C246.751 339.158 246.229 339.375 245.73 339.639C245.39 339.829 245.21 339.909 245.21 339.909L245.7 339.599C246.191 339.31 246.711 339.072 247.25 338.889C249.367 338.258 251.609 338.169 253.77 338.629C256.61 339.059 259.83 340.519 263.69 341.629C265.737 342.258 267.888 342.475 270.02 342.269C272.396 341.923 274.649 340.995 276.58 339.569C278.72 338.008 280.626 336.149 282.24 334.049C284.027 331.801 285.566 329.367 286.83 326.789C288.176 324.019 289.218 321.113 289.94 318.119C290.77 315.069 291.5 311.789 293.27 308.849C294.143 307.336 295.359 306.048 296.82 305.089C298.319 304.13 300.043 303.582 301.82 303.499C303.634 303.415 305.447 303.697 307.15 304.329C308.891 304.955 310.502 305.897 311.9 307.109C314.669 309.683 316.757 312.902 317.98 316.479C319.264 320.112 320.215 323.854 320.82 327.659C322.141 335.133 322.3 342.766 321.29 350.289C320.363 357.308 318.189 364.105 314.87 370.359C311.868 376.034 307.859 381.117 303.04 385.359C298.854 389.056 294.014 391.939 288.77 393.859C286.497 394.696 284.154 395.332 281.77 395.759C279.64 396.152 277.484 396.386 275.32 396.459C271.852 396.563 268.384 396.227 265 395.459C263.61 395.159 262.41 394.759 261.36 394.459C260.31 394.159 259.46 393.749 258.77 393.459L257.23 392.729C256.9 392.479 256.73 392.379 256.73 392.379Z" fill="#263238"/>
<path d="M299.77 317.148C299.258 316.725 298.848 316.192 298.57 315.588C297.815 314.16 297.436 312.563 297.47 310.948C297.489 309.336 297.912 307.755 298.7 306.348C298.989 305.746 299.418 305.222 299.95 304.818C300.02 304.878 299.54 305.458 299.03 306.518C298.367 307.906 298.013 309.421 297.99 310.959C297.968 312.497 298.278 314.022 298.9 315.428C299.39 316.498 299.85 317.098 299.77 317.148Z" fill="#263238"/>
<path d="M305.84 316.268C305.382 315.797 305.022 315.239 304.78 314.628C304.11 313.181 303.716 311.621 303.62 310.028C303.52 308.438 303.723 306.843 304.22 305.328C304.382 304.69 304.671 304.092 305.07 303.568C304.323 305.625 304.006 307.814 304.138 309.998C304.271 312.183 304.85 314.317 305.84 316.268Z" fill="#263238"/>
<path d="M310.7 317.999C310.068 316.483 309.808 314.837 309.94 313.199C309.896 311.556 310.239 309.926 310.94 308.439C311.09 308.489 310.52 310.569 310.46 313.209C310.4 315.849 310.85 317.999 310.7 317.999Z" fill="#263238"/>
<path d="M394.19 330.499C385.04 336.079 372.87 335.019 363.39 330.009C353.91 324.999 346.73 316.609 340.74 307.809C339.04 305.309 337.32 302.659 334.68 301.149C329.49 298.149 322.32 301.049 319.34 306.149C316.36 311.249 316.92 317.789 319.22 323.249C319.22 323.249 325.32 352.809 357.12 371.189" fill="#EA2845"/>
<path d="M357.12 371.219C357.023 371.186 356.932 371.139 356.85 371.079L356.07 370.619C355.37 370.189 354.38 369.569 353.07 368.789C352.44 368.369 351.68 367.969 350.93 367.409L348.48 365.619C347.61 364.949 346.61 364.319 345.67 363.489L342.67 360.919C337.721 356.486 333.32 351.477 329.56 345.999C327.291 342.702 325.285 339.231 323.56 335.619C321.623 331.689 320.095 327.571 319 323.329V323.379C317.479 319.898 316.843 316.095 317.15 312.309C317.344 310.332 317.907 308.409 318.81 306.639C319.986 304.407 321.789 302.568 323.998 301.349C326.207 300.13 328.725 299.584 331.24 299.779C332.705 299.953 334.111 300.459 335.35 301.259C336.536 302.068 337.588 303.056 338.47 304.189C339.36 305.289 340.14 306.449 340.9 307.579C341.66 308.709 342.45 309.819 343.23 310.899C344.81 313.069 346.43 315.139 348.1 317.069C351.233 320.76 354.803 324.057 358.73 326.889C362.16 329.353 365.966 331.247 370 332.499C375.824 334.395 382.069 334.589 388 333.059C388.495 332.937 388.982 332.787 389.46 332.609C389.91 332.449 390.34 332.319 390.72 332.159C391.48 331.819 392.14 331.559 392.64 331.299L393.79 330.689C393.918 330.614 394.052 330.551 394.19 330.499C394.074 330.589 393.95 330.669 393.82 330.739L392.69 331.389C392.19 331.669 391.54 331.939 390.78 332.299C390.39 332.469 389.97 332.609 389.52 332.779C389.04 332.969 388.549 333.129 388.05 333.259C382.075 334.885 375.756 334.743 369.86 332.849C365.784 331.61 361.937 329.715 358.47 327.239C354.503 324.401 350.896 321.09 347.73 317.379C346.04 315.439 344.41 313.379 342.82 311.199C342.03 310.109 341.25 308.989 340.48 307.859C339.71 306.729 338.94 305.579 338.07 304.509C337.218 303.423 336.207 302.472 335.07 301.689C333.897 300.934 332.566 300.458 331.18 300.299C328.305 300.037 325.433 300.829 323.1 302.529C321.533 303.673 320.234 305.146 319.295 306.843C318.355 308.541 317.797 310.423 317.66 312.359C317.364 316.059 317.982 319.774 319.46 323.179V323.229C320.539 327.442 322.047 331.533 323.96 335.439C325.688 339.036 327.694 342.493 329.96 345.779C333.687 351.244 338.051 356.246 342.96 360.679L345.96 363.269C346.89 364.109 347.88 364.739 348.73 365.419L351.16 367.239C351.9 367.809 352.65 368.239 353.28 368.639L356.21 370.539L356.96 371.039C357.019 371.094 357.072 371.154 357.12 371.219Z" fill="#263238"/>
<path d="M327.82 317.889C327.063 315.473 325.997 313.164 324.65 311.019C322.31 307.519 319.33 305.679 319.45 305.539C320.147 305.829 320.792 306.231 321.36 306.729C324.25 309.012 326.366 312.13 327.42 315.659C327.682 316.374 327.817 317.128 327.82 317.889Z" fill="#263238"/>
<path d="M334 313.88C333.606 311.342 332.88 308.868 331.84 306.52C330.64 304.25 329.151 302.146 327.41 300.26C328.068 300.658 328.658 301.157 329.16 301.74C330.439 303.088 331.502 304.626 332.31 306.3C333.114 307.971 333.66 309.755 333.93 311.59C334.085 312.343 334.108 313.118 334 313.88Z" fill="#263238"/>
<g opacity="0.3">
<path d="M313.33 372.569C315.82 368.759 305.56 367.859 301.04 368.389C294.42 369.15 288.319 372.343 283.921 377.349C279.523 382.355 277.142 388.816 277.24 395.479C277.24 395.479 297 397.589 313.33 372.569Z" fill="white"/>
</g>
<g opacity="0.3">
<path d="M330.18 355.559C335.379 363.51 343.088 369.495 352.08 372.559C353.023 372.968 354.06 373.114 355.08 372.979C355.583 372.905 356.044 372.657 356.383 372.279C356.723 371.901 356.92 371.417 356.94 370.909C346.25 365.093 337.087 356.832 330.2 346.799C329.675 349.876 330.115 353.041 331.46 355.859" fill="black"/>
</g>
<path d="M316.422 288.078C325.228 279.272 325.228 264.994 316.422 256.188C307.615 247.381 293.338 247.381 284.531 256.188C275.725 264.994 275.725 279.272 284.531 288.078C293.338 296.884 307.615 296.884 316.422 288.078Z" fill="#F5F5F5"/>
<path d="M323 273.078C323 283.968 317.28 293.078 310.91 293.078C304.54 293.078 299.37 284.248 299.37 273.368C299.37 262.488 304.54 253.658 310.91 253.658C317.28 253.658 323 262.198 323 273.078Z" fill="#181B1E"/>
<path d="M305.3 282.428C305.111 282.206 304.956 281.956 304.84 281.689C304.478 280.982 304.167 280.25 303.91 279.499C302.168 274.479 302.314 268.998 304.32 264.078C304.616 263.341 304.97 262.629 305.38 261.949C305.507 261.686 305.672 261.443 305.87 261.229C305.95 261.229 305.35 262.349 304.67 264.229C303.793 266.656 303.307 269.208 303.23 271.789C303.163 274.365 303.501 276.936 304.23 279.409C304.84 281.279 305.39 282.388 305.3 282.428Z" fill="white"/>
<path d="M313.79 264.589C315.922 264.589 317.65 262.861 317.65 260.729C317.65 258.597 315.922 256.869 313.79 256.869C311.658 256.869 309.93 258.597 309.93 260.729C309.93 262.861 311.658 264.589 313.79 264.589Z" fill="white"/>
<path d="M315.08 244.3C314.65 244.89 313.56 244.88 312.19 244.66C310.82 244.44 309.1 244.04 307.24 243.74C305.38 243.44 303.7 243.26 302.35 243.07C301 242.88 299.96 242.61 299.69 241.93C299.42 241.25 300.07 240.28 301.59 239.47C302.484 239.013 303.447 238.706 304.44 238.56C305.653 238.371 306.887 238.371 308.1 238.56C310.286 238.892 312.321 239.874 313.94 241.38C315.14 242.62 315.49 243.73 315.08 244.3Z" fill="#0E0E10"/>
<path d="M304.86 300.289C303.119 296.713 302.736 292.626 303.782 288.788C304.827 284.95 307.23 281.622 310.544 279.423C313.858 277.223 317.858 276.301 321.801 276.828C325.743 277.356 329.36 279.296 331.98 282.289" fill="#EA2845"/>
<path d="M332 282.29C332 282.29 331.52 281.84 330.63 281.07C329.359 279.99 327.928 279.113 326.39 278.47C324.117 277.508 321.667 277.038 319.2 277.09C316.167 277.061 313.195 277.94 310.664 279.614C308.134 281.287 306.162 283.678 305 286.48C303.996 288.733 303.478 291.173 303.48 293.64C303.48 295.305 303.733 296.96 304.23 298.55C304.59 299.67 304.87 300.27 304.82 300.29C304.727 300.163 304.65 300.025 304.59 299.88C304.38 299.472 304.196 299.051 304.04 298.62C303.451 297.017 303.14 295.326 303.12 293.62C303.053 291.09 303.545 288.577 304.56 286.26C305.733 283.366 307.753 280.894 310.354 279.167C312.956 277.44 316.018 276.538 319.14 276.58C321.669 276.55 324.174 277.072 326.48 278.11C328.033 278.792 329.46 279.732 330.7 280.89C331.04 281.2 331.357 281.534 331.65 281.89C331.783 282.008 331.901 282.142 332 282.29Z" fill="#263238"/>
<path d="M260.08 214.898C259.92 214.982 259.748 215.04 259.57 215.068L258.08 215.468C257.43 215.628 256.64 215.858 255.73 216.138L254.28 216.568L252.66 217.118C246.782 219.173 241.143 221.855 235.84 225.118C230.531 228.393 225.452 232.029 220.64 235.998C218.79 237.518 217.3 238.758 216.29 239.638L215.1 240.638C214.83 240.868 214.68 240.978 214.66 240.958C214.769 240.815 214.893 240.684 215.03 240.568L216.15 239.498C217.15 238.578 218.58 237.298 220.4 235.728C225.167 231.678 230.238 228 235.57 224.728C240.903 221.419 246.609 218.753 252.57 216.788L254.2 216.258L255.68 215.868C256.6 215.608 257.39 215.408 258.05 215.278L259.57 214.978C259.736 214.931 259.907 214.904 260.08 214.898Z" fill="#263238"/>
<path d="M115.06 92.7798C114.881 92.406 114.744 92.0136 114.65 91.6098C114.53 91.2298 114.4 90.7498 114.28 90.1998C114.16 89.6498 114 88.9998 113.9 88.2998C113.626 86.6465 113.472 84.9755 113.44 83.2998C113.415 81.2419 113.555 79.1853 113.86 77.1498C114.193 75.1146 114.685 73.1085 115.33 71.1498C115.883 69.5597 116.551 68.0122 117.33 66.5198C117.64 65.8698 117.99 65.3198 118.27 64.8198C118.55 64.3198 118.82 63.9198 119.05 63.5898C119.263 63.2306 119.515 62.8953 119.8 62.5898C119.88 62.6398 118.89 64.1098 117.66 66.6698C116.95 68.1694 116.335 69.7125 115.82 71.2898C115.208 73.2307 114.734 75.2123 114.4 77.2198C114.106 79.2299 113.955 81.2584 113.95 83.2898C113.959 84.9623 114.076 86.6324 114.3 88.2898C114.66 91.0598 115.16 92.7598 115.06 92.7798Z" fill="#263238"/>
<path d="M351.245 31.5786L134.406 71.9238L157.1 193.891L373.938 153.545L351.245 31.5786Z" fill="white"/>
<path d="M373.94 153.539C373.94 153.539 373.78 152.799 373.51 151.359C373.24 149.919 372.83 147.779 372.3 144.989C371.25 139.409 369.7 131.179 367.72 120.619C363.72 99.5091 358.06 69.0491 351.04 31.6191L351.28 31.7791L134.46 72.1691L134.67 71.8591C142.67 114.999 150.36 156.259 157.35 193.859L157.06 193.659L313.06 164.749L357.87 156.479L369.81 154.289L372.89 153.729L373.95 153.549L372.95 153.759L369.9 154.339L358 156.569L313.26 164.999L157.14 194.129L156.9 194.179V193.939C149.9 156.359 142.22 115.109 134.18 71.9391V71.6791H134.43L351.2 31.3691H351.4V31.5591L367.88 120.739C369.82 131.289 371.33 139.499 372.36 145.079L373.52 151.419C373.82 152.819 373.94 153.539 373.94 153.539Z" fill="#263238"/>
<path d="M227.67 118.658L221 119.898L222.6 128.468L210.26 130.768L208.66 122.198L185 126.598L183.46 118.348L198.34 86.6783L211.45 84.2383L198.09 113.778L207.17 112.088L205.75 104.478L217.75 102.258L219.17 109.858L225.81 108.628L227.67 118.658Z" fill="#181B1E"/>
<path d="M227.66 104.379C224.91 89.6088 231.66 79.5588 243.09 77.4288C254.52 75.2988 264.36 82.2688 267.09 97.0388C269.82 111.809 263.09 121.859 251.73 123.969C240.37 126.079 230.41 119.149 227.66 104.379ZM254.39 99.3788C252.64 89.9988 249 86.9988 245 87.7888C241 88.5788 238.62 92.6088 240.37 102.009C242.12 111.409 245.71 114.379 249.8 113.619C253.89 112.859 256.14 108.799 254.39 99.3988V99.3788Z" fill="#181B1E"/>
<path d="M316.23 102.18L309.58 103.42L311.17 111.99L298.84 114.29L297.24 105.72L273.58 110.12L272.05 101.87L286.93 70.1998L300 67.7598L286.68 97.2998L295.76 95.6098L294.34 87.9998L306.34 85.7798L307.75 93.3798L314.4 92.1498L316.23 102.18Z" fill="#181B1E"/>
<path d="M232.08 154.749L232.49 156.929L219.75 159.299L216.48 141.739L228.87 139.439L229.27 141.619L219.39 143.459L220.39 148.849L229.2 147.209L229.6 149.349L220.79 150.999L221.85 156.659L232.08 154.749Z" fill="#181B1E"/>
<path d="M248.28 154L243.49 149.31C243.15 149.4 242.78 149.5 242.4 149.57L238.06 150.38L239.06 155.72L236.56 156.19L233.29 138.63L240.14 137.35C244.7 136.5 247.89 138.3 248.6 142.11C248.884 143.319 248.76 144.588 248.248 145.72C247.736 146.852 246.865 147.784 245.77 148.37L251.03 153.49L248.28 154ZM246.08 142.58C245.61 140.07 243.67 138.95 240.46 139.58L236.19 140.37L237.66 148.27L241.93 147.48C245.14 146.84 246.55 145.08 246.08 142.57V142.58Z" fill="#181B1E"/>
<path d="M266.51 150.6L261.72 145.91C261.38 146 261.01 146.1 260.63 146.17L256.29 146.97L257.29 152.32L254.79 152.78L251.52 135.23L258.37 133.95C262.93 133.1 266.12 134.95 266.83 138.71C267.121 139.924 267.001 141.2 266.489 142.338C265.976 143.476 265.101 144.412 264 145L269.26 150.12L266.51 150.6ZM264.31 139.18C263.84 136.67 261.9 135.55 258.69 136.18L254.42 136.97L255.89 144.87L260.16 144.08C263.37 143.45 264.78 141.68 264.31 139.18Z" fill="#181B1E"/>
<path d="M269.94 140.878C268.99 135.738 272.23 131.158 277.63 130.158C283.03 129.158 287.63 132.238 288.63 137.408C289.63 142.578 286.34 147.118 281 148.118C275.66 149.118 270.9 145.998 269.94 140.878ZM286.1 137.878C285.866 136.521 285.233 135.264 284.282 134.268C283.331 133.272 282.105 132.581 280.761 132.283C279.416 131.985 278.013 132.095 276.731 132.597C275.448 133.099 274.344 133.972 273.559 135.103C272.774 136.235 272.343 137.574 272.322 138.952C272.301 140.329 272.69 141.681 273.439 142.836C274.189 143.992 275.265 144.898 276.532 145.44C277.798 145.981 279.197 146.134 280.55 145.878C281.451 145.74 282.315 145.42 283.089 144.936C283.862 144.453 284.529 143.817 285.048 143.067C285.568 142.318 285.929 141.47 286.11 140.576C286.291 139.682 286.287 138.761 286.1 137.868V137.878Z" fill="#181B1E"/>
<path d="M305.81 143.29L301 138.6C300.65 138.69 300.28 138.78 299.9 138.85L295.56 139.66L296.56 145L294.05 145.47L290.78 127.91L297.63 126.64C302.2 125.79 305.38 127.58 306.09 131.4C306.377 132.609 306.255 133.88 305.743 135.012C305.231 136.145 304.358 137.076 303.26 137.66L308.52 142.78L305.81 143.29ZM303.6 131.86C303.14 129.36 301.19 128.24 297.98 128.86L293.72 129.65L295.19 137.55L299.45 136.76C302.66 136.14 304.07 134.37 303.6 131.86Z" fill="#181B1E"/>
<path d="M346.67 44.7801C346.705 45.6744 346.474 46.559 346.006 47.3218C345.538 48.0846 344.854 48.6912 344.04 49.0648C343.227 49.4384 342.321 49.5622 341.438 49.4204C340.554 49.2787 339.732 48.8777 339.077 48.2685C338.421 47.6592 337.961 46.869 337.755 45.9981C337.549 45.1271 337.606 44.2146 337.919 43.3762C338.232 42.5377 338.787 41.8111 339.514 41.2884C340.24 40.7658 341.106 40.4705 342 40.4401C343.194 40.3995 344.355 40.8333 345.231 41.6465C346.106 42.4598 346.623 43.5864 346.67 44.7801Z" fill="#E0E0E0"/>
<path d="M346.67 44.7789C346.62 44.7789 346.61 44.3789 346.39 43.7089C346.071 42.7731 345.457 41.9661 344.64 41.4089C343.98 40.9622 343.21 40.7066 342.414 40.6703C341.618 40.6341 340.828 40.8187 340.13 41.2037C339.433 41.5887 338.855 42.1591 338.462 42.8518C338.068 43.5446 337.874 44.3326 337.9 45.1289C337.939 45.9221 338.197 46.689 338.643 47.3455C339.09 48.002 339.709 48.5226 340.433 48.8502C341.156 49.1778 341.956 49.2997 342.744 49.2024C343.532 49.1052 344.278 48.7925 344.9 48.2989C345.673 47.6823 346.221 46.8283 346.46 45.8689C346.63 45.1789 346.61 44.7789 346.66 44.7789C346.71 44.7789 346.66 44.8789 346.71 45.0689C346.729 45.3499 346.712 45.6322 346.66 45.9089C346.482 46.952 345.94 47.8981 345.13 48.5789C344.528 49.0917 343.807 49.4441 343.032 49.6032C342.257 49.7623 341.455 49.723 340.7 49.4889C339.764 49.1984 338.941 48.625 338.345 47.8475C337.748 47.0701 337.407 46.1268 337.369 45.1476C337.33 44.1684 337.597 43.2014 338.13 42.3796C338.664 41.5579 339.44 40.9218 340.35 40.5589C341.084 40.2637 341.881 40.1592 342.666 40.2554C343.451 40.3516 344.199 40.6453 344.84 41.1089C345.699 41.7289 346.311 42.6318 346.57 43.6589C346.646 43.9289 346.683 44.2084 346.68 44.4889C346.69 44.6789 346.69 44.7789 346.67 44.7789Z" fill="#263238"/>
<path d="M344.15 41.6387C344.374 42.8452 344.154 44.092 343.53 45.1487C343.064 46.282 342.205 47.209 341.11 47.7587C341.823 46.8535 342.475 45.9013 343.06 44.9087C343.494 43.8436 343.858 42.7513 344.15 41.6387Z" fill="#263238"/>
<path d="M345 46.4286C344.87 46.5086 344.27 45.3186 342.91 44.6186C342.05 44.2704 341.144 44.0481 340.22 43.9586C340.22 43.8886 340.52 43.7486 341.07 43.7086C341.791 43.671 342.509 43.8264 343.15 44.1586C343.79 44.4894 344.329 44.9869 344.71 45.5986C345 46.0686 345.1 46.4086 345 46.4286Z" fill="#263238"/>
<path d="M144.014 104.411L132.638 113.482L136.741 118.627L148.117 109.555L144.014 104.411Z" fill="#E0E0E0"/>
<path d="M148.11 109.569C148.11 109.569 147.65 109.069 146.91 108.189L143.91 104.539H144.18C141.26 106.919 137.27 110.139 132.85 113.659C132.85 113.989 132.85 113.219 132.85 113.299L132.92 113.389L133.06 113.559L133.33 113.889L133.86 114.559L134.86 115.869L136.86 118.369H136.51C139.79 115.779 142.64 113.579 144.69 111.999L147.11 110.159C147.405 109.918 147.715 109.698 148.04 109.499C147.805 109.745 147.551 109.973 147.28 110.179L144.98 112.099C142.98 113.739 140.16 116.099 136.82 118.759L136.63 118.909L136.47 118.719L134.47 116.229C134.12 115.799 133.77 115.369 133.42 114.919L132.89 114.259L132.62 113.919L132.48 113.749L132.42 113.669C132.42 113.749 132.5 112.979 132.42 113.309C136.84 109.779 140.87 106.609 143.84 104.309L143.99 104.199L144.11 104.339C145.38 105.979 146.39 107.339 147.11 108.219C147.474 108.646 147.808 109.097 148.11 109.569Z" fill="#263238"/>
<path d="M130.08 120C130.574 120.626 131.187 121.149 131.883 121.538C132.579 121.927 133.346 122.175 134.138 122.268C134.93 122.361 135.733 122.297 136.5 122.079C137.267 121.861 137.984 121.495 138.61 121L131 111.5C129.756 112.509 128.962 113.968 128.79 115.561C128.617 117.153 129.081 118.748 130.08 120Z" fill="#E0E0E0"/>
<path d="M130.08 119.999C129.896 119.848 129.738 119.669 129.61 119.469C129.234 118.914 128.956 118.298 128.79 117.649C128.523 116.646 128.523 115.591 128.79 114.589C129.12 113.288 129.859 112.127 130.9 111.279L131.09 111.129L131.24 111.319L135.04 116.049C136.38 117.729 137.65 119.339 138.81 120.809L138.96 120.999L138.77 121.149C137.713 121.973 136.42 122.439 135.08 122.479C134.037 122.505 133.004 122.264 132.08 121.779C131.487 121.47 130.953 121.061 130.5 120.569C130.331 120.402 130.189 120.21 130.08 119.999C130.714 120.604 131.431 121.116 132.21 121.519C133.219 121.985 134.338 122.162 135.441 122.029C136.545 121.897 137.59 121.461 138.46 120.769V121.109L134.66 116.379L130.89 111.619H131.22C130.35 112.315 129.691 113.239 129.317 114.288C128.942 115.337 128.867 116.47 129.1 117.559C129.313 118.413 129.643 119.235 130.08 119.999Z" fill="#263238"/>
<path d="M131.48 116.85C131.013 117.391 130.706 118.053 130.595 118.76C130.484 119.467 130.572 120.19 130.85 120.85" fill="#E0E0E0"/>
<path d="M130.85 120.889C130.588 120.604 130.403 120.258 130.312 119.881C130.221 119.505 130.227 119.112 130.33 118.739C130.52 117.439 131.4 116.739 131.48 116.849C131.56 116.959 131 117.699 130.84 118.849C130.68 119.999 131 120.819 130.85 120.889Z" fill="#263238"/>
<path d="M138.63 117.499C137.824 116.674 137.081 115.788 136.41 114.849C135.611 114.022 134.876 113.136 134.21 112.199C135.243 112.764 136.132 113.557 136.81 114.519C137.629 115.366 138.25 116.384 138.63 117.499Z" fill="#263238"/>
<path d="M140 116.439C139.198 115.612 138.459 114.726 137.79 113.789C136.989 112.961 136.253 112.071 135.59 111.129C137.558 112.418 139.094 114.268 140 116.439Z" fill="#263238"/>
<path d="M141.3 115.368C140.495 114.544 139.756 113.658 139.09 112.718C138.286 111.893 137.548 111.007 136.88 110.068C137.915 110.634 138.807 111.427 139.49 112.388C140.303 113.239 140.92 114.255 141.3 115.368Z" fill="#263238"/>
<path d="M142.63 114.31C141.828 113.483 141.089 112.597 140.42 111.66C139.622 110.828 138.887 109.939 138.22 109C139.247 109.573 140.134 110.365 140.82 111.32C141.64 112.168 142.259 113.19 142.63 114.31Z" fill="#263238"/>
<path d="M144 113.239C143.195 112.415 142.456 111.529 141.79 110.589C140.988 109.766 140.252 108.88 139.59 107.939C140.618 108.51 141.507 109.302 142.19 110.259C143.002 111.11 143.62 112.127 144 113.239Z" fill="#263238"/>
<path d="M145.3 112.179C144.498 111.352 143.76 110.466 143.09 109.529C142.292 108.698 141.557 107.809 140.89 106.869C141.917 107.442 142.804 108.234 143.49 109.189C144.31 110.037 144.929 111.059 145.3 112.179Z" fill="#263238"/>
<path d="M146.64 111.109C145.835 110.284 145.096 109.398 144.43 108.459C143.628 107.635 142.892 106.749 142.23 105.809C143.258 106.379 144.147 107.172 144.83 108.129C145.642 108.979 146.26 109.996 146.64 111.109Z" fill="#263238"/>
<path d="M154.5 81.9993C154.45 81.9993 154.44 81.5893 154.22 80.9193C153.903 79.9661 153.276 79.1461 152.44 78.5893C151.773 78.1342 150.992 77.8729 150.186 77.8344C149.379 77.7959 148.577 77.9817 147.87 78.3712C147.162 78.7607 146.577 79.3386 146.178 80.0409C145.779 80.7431 145.582 81.5422 145.61 82.3493C145.645 83.157 145.904 83.9391 146.357 84.6086C146.811 85.278 147.441 85.8086 148.178 86.1413C148.914 86.474 149.729 86.5957 150.531 86.493C151.333 86.3902 152.091 86.067 152.72 85.5593C153.505 84.937 154.06 84.0717 154.3 83.0993C154.47 82.4093 154.45 81.9993 154.5 81.9993C154.55 81.9993 154.5 82.0993 154.55 82.2893C154.569 82.5736 154.552 82.8592 154.5 83.1393C154.337 84.2005 153.806 85.1705 153 85.8793C152.392 86.3997 151.662 86.7565 150.878 86.9157C150.094 87.075 149.282 87.0315 148.52 86.7893C147.586 86.4868 146.767 85.9053 146.174 85.1231C145.581 84.3409 145.242 83.3956 145.203 82.4148C145.164 81.434 145.426 80.4647 145.955 79.6376C146.484 78.8106 147.253 78.1655 148.16 77.7893C148.904 77.493 149.711 77.389 150.507 77.4869C151.302 77.5848 152.06 77.8814 152.71 78.3493C153.577 78.9782 154.196 79.8912 154.46 80.9293C154.533 81.2036 154.573 81.4856 154.58 81.7693C154.547 81.9227 154.52 81.9993 154.5 81.9993Z" fill="#263238"/>
<path d="M124.8 93.0787C124.63 92.7021 124.496 92.3104 124.4 91.9087C124.246 91.4437 124.123 90.9694 124.03 90.4887C123.91 89.9387 123.74 89.3087 123.65 88.5987C123.373 86.9456 123.215 85.2745 123.18 83.5987C123.101 79.469 123.744 75.3572 125.08 71.4487C125.63 69.8544 126.299 68.3034 127.08 66.8087C127.38 66.1587 127.73 65.6087 128.01 65.1187C128.249 64.6958 128.509 64.2852 128.79 63.8887C129.006 63.5312 129.257 63.1962 129.54 62.8887C129.63 62.9487 128.63 64.4087 127.41 66.9787C126.688 68.4745 126.07 70.0181 125.56 71.5987C124.948 73.5355 124.477 75.514 124.15 77.5187C123.847 79.5313 123.694 81.5635 123.69 83.5987C123.698 85.2712 123.815 86.9413 124.04 88.5987C124.4 91.3587 124.9 93.0487 124.8 93.0787Z" fill="#263238"/>
<path d="M388.49 137C388.675 137.371 388.812 137.764 388.9 138.17C389.049 138.633 389.172 139.104 389.27 139.58C389.39 140.14 389.56 140.77 389.65 141.48C389.928 143.133 390.085 144.804 390.12 146.48C390.196 150.61 389.554 154.721 388.22 158.63C387.672 160.222 387.003 161.77 386.22 163.26C385.91 163.91 385.57 164.46 385.28 164.96C385.046 165.386 384.785 165.797 384.5 166.19C384.292 166.55 384.043 166.886 383.76 167.19C383.67 167.14 384.67 165.67 385.89 163.11C386.6 161.609 387.217 160.066 387.74 158.49C388.353 156.55 388.824 154.568 389.15 152.56C389.452 150.551 389.606 148.522 389.61 146.49C389.596 144.818 389.479 143.148 389.26 141.49C388.9 138.76 388.4 137.06 388.49 137Z" fill="#263238"/>
<path d="M395 138.76C395.182 139.132 395.32 139.525 395.41 139.93C395.559 140.393 395.682 140.863 395.78 141.34C395.9 141.9 396.06 142.53 396.16 143.24C396.438 144.893 396.595 146.564 396.63 148.24C396.65 150.298 396.51 152.354 396.21 154.39C395.879 156.426 395.384 158.433 394.73 160.39C394.18 161.984 393.511 163.535 392.73 165.03C392.42 165.67 392.08 166.22 391.79 166.72C391.551 167.161 391.287 167.588 391 168C390.792 168.36 390.543 168.695 390.26 169C390.17 168.95 391.17 167.48 392.39 164.92C393.103 163.42 393.721 161.877 394.24 160.3C394.853 158.36 395.324 156.378 395.65 154.37C395.953 152.361 396.107 150.332 396.11 148.3C396.097 146.627 395.98 144.958 395.76 143.3C395.4 140.48 394.9 138.78 395 138.76Z" fill="#263238"/>
<path d="M177.53 217.211C183.862 208.753 186.794 198.228 185.746 187.715C184.698 177.201 179.748 167.462 171.871 160.42C163.994 153.377 153.764 149.544 143.199 149.675C132.634 149.807 122.502 153.894 114.803 161.13C107.104 168.366 102.397 178.225 101.611 188.761C100.825 199.298 104.018 209.746 110.558 218.044C117.099 226.342 126.513 231.887 136.941 233.584C147.37 235.281 158.056 233.007 166.89 227.211L181.41 233.641L177.53 217.211Z" fill="#FAFAFA"/>
<path d="M130.92 189.52C131.043 187.928 131.655 186.412 132.67 185.18C133.614 183.932 134.925 183.012 136.42 182.55C137.698 182.181 139.062 182.246 140.298 182.737C141.535 183.228 142.573 184.115 143.25 185.26C143.826 184.113 144.752 183.18 145.893 182.594C147.034 182.008 148.333 181.8 149.6 182C151.125 182.294 152.522 183.052 153.6 184.17C154.748 185.281 155.533 186.714 155.85 188.28C156.214 190.286 155.919 192.355 155.01 194.18C153.945 196.04 152.45 197.617 150.65 198.78C147.74 200.78 143.91 203.28 143.91 203.28C143.91 203.28 140.4 200.97 137.28 199.33C135.353 198.389 133.68 197 132.4 195.28C131.302 193.568 130.783 191.549 130.92 189.52Z" fill="#EA2845"/>
<path d="M143.68 149.831C143.434 149.809 143.186 149.809 142.94 149.831L140.79 149.901C140.31 149.901 139.79 149.901 139.2 149.971L137.3 150.231L135.08 150.551L132.6 151.171C128.339 152.245 124.284 154.015 120.6 156.411C115.135 159.886 110.539 164.566 107.162 170.092C103.786 175.618 101.719 181.843 101.12 188.291C100.954 190.227 100.914 192.171 101 194.111C101.07 195.111 101 196.111 101.19 197.111C101.38 198.111 101.49 199.111 101.65 200.111C102.394 204.23 103.742 208.216 105.65 211.941C107.692 215.842 110.293 219.423 113.37 222.571C116.645 225.796 120.4 228.494 124.5 230.571C128.742 232.75 133.336 234.158 138.07 234.731C139.268 234.92 140.477 235.023 141.69 235.041C142.908 235.135 144.13 235.158 145.35 235.111C147.815 235.009 150.267 234.698 152.68 234.181C157.888 233.054 162.837 230.957 167.27 228.001L166.83 228.051L181.69 234.051L182.57 234.411L182.32 233.491L178 217.551L177.93 217.941C181.959 212.597 184.672 206.379 185.85 199.791C186.422 196.727 186.617 193.603 186.43 190.491C186.4 188.986 186.256 187.485 186 186.001C185.89 185.271 185.77 184.551 185.66 183.831C185.55 183.111 185.31 182.421 185.14 181.721C182.659 171.957 176.785 163.393 168.57 157.561C165.534 155.381 162.213 153.628 158.7 152.351L156.48 151.561L154.37 151.021L152.44 150.541C151.82 150.421 151.22 150.361 150.66 150.271C149.54 150.131 148.55 149.941 147.66 149.891L145.47 149.821H144.14C143.991 149.799 143.839 149.799 143.69 149.821C143.838 149.854 143.988 149.874 144.14 149.881L145.47 149.981L147.63 150.131C148.49 150.201 149.47 150.411 150.58 150.581C158.642 151.973 166.126 155.675 172.124 161.238C178.123 166.802 182.377 173.987 184.37 181.921C184.53 182.611 184.74 183.291 184.87 183.991C185 184.691 185.08 185.411 185.19 186.121C185.432 187.572 185.562 189.04 185.58 190.511C185.751 193.564 185.549 196.627 184.98 199.631C183.803 206.08 181.124 212.16 177.16 217.381L177.03 217.561L177.09 217.781C178.49 222.911 179.93 228.221 181.42 233.671L182.05 233.111L167.2 227.111L166.97 227.021L166.75 227.151C162.41 230.019 157.575 232.054 152.49 233.151C150.133 233.657 147.738 233.961 145.33 234.061C144.136 234.103 142.941 234.08 141.75 233.991C140.568 233.972 139.388 233.871 138.22 233.691C133.592 233.135 129.1 231.764 124.95 229.641C120.922 227.626 117.229 225.002 114 221.861C110.983 218.781 108.427 215.282 106.41 211.471C104.519 207.831 103.171 203.933 102.41 199.901C102.26 198.901 102.11 197.901 101.96 196.971C101.81 196.041 101.83 194.971 101.76 194.051C101.398 186.722 102.969 179.426 106.316 172.895C109.663 166.364 114.669 160.828 120.83 156.841C124.457 154.438 128.448 152.638 132.65 151.511L135.1 150.861L137.3 150.501L139.18 150.191C139.76 150.121 140.29 150.111 140.76 150.071L142.91 149.911C143.168 149.901 143.425 149.874 143.68 149.831Z" fill="#263238"/>
</svg>
