<svg width="149" height="35" viewBox="0 0 149 35" fill="none" xmlns="http://www.w3.org/2000/svg">
<path d="M38.856 27L33.408 10.056H37.152L41.136 23.088H39.672L43.56 10.056H46.512L50.4 23.088H48.96L52.92 10.056H56.64L51.192 27H48.24L44.328 13.968H45.72L41.808 27H38.856ZM55.5319 27L62.2519 10.056H65.6599L72.3079 27H68.3239L63.2359 12.936H64.6039L59.4439 27H55.5319ZM59.3479 23.928V20.856H68.5879V23.928H59.3479ZM76.3543 27V10.296H80.1223V27H76.3543ZM71.0503 13.344V10.056H85.4263V13.344H71.0503ZM94.6798 27.264C93.4158 27.264 92.2398 27.048 91.1518 26.616C90.0798 26.168 89.1358 25.544 88.3198 24.744C87.5198 23.944 86.8958 23.016 86.4478 21.96C85.9998 20.888 85.7758 19.736 85.7758 18.504C85.7758 17.272 85.9998 16.128 86.4478 15.072C86.8958 14 87.5198 13.072 88.3198 12.288C89.1198 11.504 90.0558 10.896 91.1278 10.464C92.2158 10.016 93.3918 9.792 94.6558 9.792C95.9998 9.792 97.1918 10.008 98.2318 10.44C99.2878 10.872 100.208 11.464 100.992 12.216L98.4718 14.76C98.0238 14.28 97.4798 13.904 96.8398 13.632C96.2158 13.36 95.4878 13.224 94.6558 13.224C93.9198 13.224 93.2398 13.352 92.6158 13.608C92.0078 13.848 91.4798 14.2 91.0318 14.664C90.5998 15.128 90.2558 15.688 89.9998 16.344C89.7598 17 89.6398 17.72 89.6398 18.504C89.6398 19.304 89.7598 20.032 89.9998 20.688C90.2558 21.344 90.5998 21.904 91.0318 22.368C91.4798 22.832 92.0078 23.192 92.6158 23.448C93.2398 23.704 93.9198 23.832 94.6558 23.832C95.5198 23.832 96.2718 23.696 96.9118 23.424C97.5518 23.152 98.1038 22.776 98.5678 22.296L101.112 24.84C100.296 25.592 99.3598 26.184 98.3038 26.616C97.2638 27.048 96.0558 27.264 94.6798 27.264ZM103.187 27V10.056H106.955V27H103.187ZM113.675 27V10.056H117.467V27H113.675ZM105.443 19.92V16.656H114.923V19.92H105.443Z" fill="white"/>
<path d="M120.718 27V10.056H124.486V27H120.718ZM131.901 27V10.296H135.669V27H131.901ZM126.597 13.344V10.056H140.973V13.344H126.597Z" fill="#EA2845"/>
<path d="M26.25 5.5C25.9185 5.5 25.6005 5.6317 25.3661 5.86612C25.1317 6.10054 25 6.41848 25 6.75V9.25H22.5V6.75C22.5 6.41848 22.3683 6.10054 22.1339 5.86612C21.8995 5.6317 21.5815 5.5 21.25 5.5C20.9185 5.5 20.6005 5.6317 20.3661 5.86612C20.1317 6.10054 20 6.41848 20 6.75V8H10V6.75C10 6.41848 9.8683 6.10054 9.63388 5.86612C9.39946 5.6317 9.08152 5.5 8.75 5.5C8.41848 5.5 8.10054 5.6317 7.86612 5.86612C7.6317 6.10054 7.5 6.41848 7.5 6.75V9.25H5V6.75C5 6.41848 4.8683 6.10054 4.63388 5.86612C4.39946 5.6317 4.08152 5.5 3.75 5.5C3.41848 5.5 3.10054 5.6317 2.86612 5.86612C2.6317 6.10054 2.5 6.41848 2.5 6.75V29.25C2.5 29.5815 2.6317 29.8995 2.86612 30.1339C3.10054 30.3683 3.41848 30.5 3.75 30.5C4.08152 30.5 4.39946 30.3683 4.63388 30.1339C4.8683 29.8995 5 29.5815 5 29.25V26.75H7.5V29.25C7.5 29.5815 7.6317 29.8995 7.86612 30.1339C8.10054 30.3683 8.41848 30.5 8.75 30.5C9.08152 30.5 9.39946 30.3683 9.63388 30.1339C9.8683 29.8995 10 29.5815 10 29.25V28H20V29.25C20 29.5815 20.1317 29.8995 20.3661 30.1339C20.6005 30.3683 20.9185 30.5 21.25 30.5C21.5815 30.5 21.8995 30.3683 22.1339 30.1339C22.3683 29.8995 22.5 29.5815 22.5 29.25V26.75H25V29.25C25 29.5815 25.1317 29.8995 25.3661 30.1339C25.6005 30.3683 25.9185 30.5 26.25 30.5C26.5815 30.5 26.8995 30.3683 27.1339 30.1339C27.3683 29.8995 27.5 29.5815 27.5 29.25V6.75C27.5 6.41848 27.3683 6.10054 27.1339 5.86612C26.8995 5.6317 26.5815 5.5 26.25 5.5ZM7.5 24.25H5V21.75H7.5V24.25ZM7.5 19.25H5V16.75H7.5V19.25ZM7.5 14.25H5V11.75H7.5V14.25ZM20 25.5H10V19.25H20V25.5ZM20 16.75H10V10.5H20V16.75ZM25 24.25H22.5V21.75H25V24.25ZM25 19.25H22.5V16.75H25V19.25ZM25 14.25H22.5V11.75H25V14.25Z" fill="#EA2845"/>
</svg>
