<svg width="30" height="30" viewBox="0 0 30 30" fill="none" xmlns="http://www.w3.org/2000/svg">
<path d="M26.25 2.5C25.9185 2.5 25.6005 2.6317 25.3661 2.86612C25.1317 3.10054 25 3.41848 25 3.75V6.25H22.5V3.75C22.5 3.41848 22.3683 3.10054 22.1339 2.86612C21.8995 2.6317 21.5815 2.5 21.25 2.5C20.9185 2.5 20.6005 2.6317 20.3661 2.86612C20.1317 3.10054 20 3.41848 20 3.75V5H10V3.75C10 3.41848 9.8683 3.10054 9.63388 2.86612C9.39946 2.6317 9.08152 2.5 8.75 2.5C8.41848 2.5 8.10054 2.6317 7.86612 2.86612C7.6317 3.10054 7.5 3.41848 7.5 3.75V6.25H5V3.75C5 3.41848 4.8683 3.10054 4.63388 2.86612C4.39946 2.6317 4.08152 2.5 3.75 2.5C3.41848 2.5 3.10054 2.6317 2.86612 2.86612C2.6317 3.10054 2.5 3.41848 2.5 3.75V26.25C2.5 26.5815 2.6317 26.8995 2.86612 27.1339C3.10054 27.3683 3.41848 27.5 3.75 27.5C4.08152 27.5 4.39946 27.3683 4.63388 27.1339C4.8683 26.8995 5 26.5815 5 26.25V23.75H7.5V26.25C7.5 26.5815 7.6317 26.8995 7.86612 27.1339C8.10054 27.3683 8.41848 27.5 8.75 27.5C9.08152 27.5 9.39946 27.3683 9.63388 27.1339C9.8683 26.8995 10 26.5815 10 26.25V25H20V26.25C20 26.5815 20.1317 26.8995 20.3661 27.1339C20.6005 27.3683 20.9185 27.5 21.25 27.5C21.5815 27.5 21.8995 27.3683 22.1339 27.1339C22.3683 26.8995 22.5 26.5815 22.5 26.25V23.75H25V26.25C25 26.5815 25.1317 26.8995 25.3661 27.1339C25.6005 27.3683 25.9185 27.5 26.25 27.5C26.5815 27.5 26.8995 27.3683 27.1339 27.1339C27.3683 26.8995 27.5 26.5815 27.5 26.25V3.75C27.5 3.41848 27.3683 3.10054 27.1339 2.86612C26.8995 2.6317 26.5815 2.5 26.25 2.5ZM7.5 21.25H5V18.75H7.5V21.25ZM7.5 16.25H5V13.75H7.5V16.25ZM7.5 11.25H5V8.75H7.5V11.25ZM20 22.5H10V16.25H20V22.5ZM20 13.75H10V7.5H20V13.75ZM25 21.25H22.5V18.75H25V21.25ZM25 16.25H22.5V13.75H25V16.25ZM25 11.25H22.5V8.75H25V11.25Z" fill="#EA2845"/>
</svg>
