<svg width="24" height="24" viewBox="0 0 24 24" fill="none" xmlns="http://www.w3.org/2000/svg">
<g clip-path="url(#clip0_7_7)">
<path d="M10.9397 10.9392C10.3538 11.5252 10.3538 12.4748 10.9397 13.0603C11.5252 13.6462 12.4753 13.6462 13.0608 13.0603C13.6467 12.4744 13.6467 11.5247 13.0608 10.9392C12.4748 10.3538 11.5252 10.3538 10.9397 10.9392ZM12 0.375C5.57953 0.375 0.375 5.57953 0.375 12C0.375 18.4205 5.57953 23.625 12 23.625C18.4205 23.625 23.625 18.4205 23.625 12C23.625 5.57953 18.4205 0.375 12 0.375ZM17.9128 7.31484L14.8205 14.0812C14.6709 14.4085 14.4085 14.6709 14.0812 14.8205L7.31531 17.9128C6.53484 18.2695 5.73047 17.4652 6.08719 16.6847L9.18 9.91828C9.32957 9.59105 9.59199 9.32864 9.91922 9.17906L16.6852 6.08672C17.4656 5.73047 18.2695 6.53438 17.9128 7.31484Z" fill="black"/>
</g>
<defs>
<clipPath id="clip0_7_7">
<rect width="24" height="24" fill="white"/>
</clipPath>
</defs>
</svg>
