<svg width="24" height="24" viewBox="0 0 24 24" fill="none" xmlns="http://www.w3.org/2000/svg">
<g clip-path="url(#clip0_82_1505)">
<path d="M22 3.66666C22 3.11249 21.5542 2.66666 21 2.66666C20.4458 2.66666 20 3.11249 20 3.66666V3.99999H1.33333C0.595833 3.99999 0 4.59582 0 5.33332V9.99999C0 10.7375 0.595833 11.3333 1.33333 11.3333H1.75C2.61667 11.3333 3.25417 12.15 3.04167 12.9917L1.375 19.675C1.275 20.075 1.36667 20.4958 1.61667 20.8208C1.86667 21.1458 2.25417 21.3333 2.66667 21.3333H6.66667C7.27917 21.3333 7.8125 20.9167 7.95833 20.325L9.04167 16H13.3917C14.3792 16 15.2583 15.3792 15.5875 14.45L16.7042 11.3333H18C18.3542 11.3333 18.6917 11.1917 18.9417 10.9417L19.8875 9.99999H22.6667C23.4042 9.99999 24 9.40416 24 8.66666V5.33332C24 4.59582 23.4042 3.99999 22.6667 3.99999H22V3.66666ZM13.3917 14H9.54167L10.2083 11.3333H14.5833L13.7083 13.7792C13.6625 13.9125 13.5333 14 13.3958 14H13.3917ZM3.33333 6.66666H19.3333C19.7 6.66666 20 6.96666 20 7.33332C20 7.69999 19.7 7.99999 19.3333 7.99999H3.33333C2.96667 7.99999 2.66667 7.69999 2.66667 7.33332C2.66667 6.96666 2.96667 6.66666 3.33333 6.66666Z" fill="black"/>
</g>
<defs>
<clipPath id="clip0_82_1505">
<rect width="24" height="24" fill="white"/>
</clipPath>
</defs>
</svg>
