<svg width="24" height="24" viewBox="0 0 24 24" fill="none" xmlns="http://www.w3.org/2000/svg">
<path d="M22.5447 11.8198L12.5489 1.24093C12.4769 1.16456 12.3914 1.10396 12.2973 1.06262C12.2032 1.02128 12.1023 1 12.0005 1C11.8986 1 11.7977 1.02128 11.7036 1.06262C11.6095 1.10396 11.524 1.16456 11.452 1.24093L1.45623 11.8198C1.16502 12.1282 1 12.5471 1 12.984C1 13.8913 1.69648 14.629 2.55312 14.629H3.60633V22.1775C3.60633 22.6325 3.95335 23 4.38289 23H10.4473V17.2428H13.1653V23H19.618C20.0476 23 20.3946 22.6325 20.3946 22.1775V14.629H21.4478C21.8603 14.629 22.2559 14.4568 22.5471 14.1458C23.1514 13.5032 23.1514 12.4623 22.5447 11.8198Z" fill="black"/>
</svg>
