<svg width="24" height="24" viewBox="0 0 24 24" fill="none" xmlns="http://www.w3.org/2000/svg">
<g clip-path="url(#clip0_82_1506)">
<path d="M23.0113 0.703125C22.2645 1.99641 21.1864 3.03187 19.9116 3.79247C19.834 4.85653 19.2992 5.87292 18.4747 6.78516C17.3134 8.07 15.5749 9.21633 13.5631 10.2495C9.623 12.2731 4.62454 13.8454 0.871723 14.8271V17.3525C1.22394 17.2381 1.57789 17.1253 1.93222 17.0127C2.80855 17.013 3.78144 17.3527 4.10019 19.3696C3.79466 20.8945 3.00004 21.2393 3.00004 22.3594C3.00004 22.9382 3.57304 23.3628 4.12644 23.3628C4.69241 23.3628 5.2295 22.966 5.2295 22.4165C5.2295 21.3383 4.46197 20.8947 4.15138 19.3564C4.61052 15.7658 10.4224 13.8671 10.4224 15.9931C10.4224 16.5383 9.8218 16.9783 9.8218 17.4755C9.8218 18.0733 10.37 18.495 10.9483 18.495C11.514 18.495 12.1041 18.0216 12.1041 17.3921C12.1041 16.7625 11.4478 16.4108 11.4478 15.9038C11.4478 12.5721 16.8305 12.2437 17.6675 15.1171C17.0506 17.7889 15.6973 18.6332 15.6973 20.5942C15.6973 21.6273 16.7091 22.3755 17.773 22.3755C18.8136 22.3755 19.8882 21.5754 19.8882 20.4873C19.8882 18.4372 18.4742 17.767 17.8698 15.0878C18.9615 9.00652 20.7415 9.38348 22.0093 6.83639C22.011 6.83358 22.0121 6.83044 22.0138 6.82758C22.9873 5.13562 23.3861 3.13172 23.0112 0.703125H23.0113ZM18.9552 4.29637C17.213 5.09728 15.1998 5.44144 13.1895 5.29387C10.3798 7.18889 5.0533 9.68728 0.871582 10.5469V13.9205C4.56093 12.9443 9.40344 11.4011 13.1631 9.47016C15.1215 8.46441 16.7828 7.35 17.8242 6.19781C18.3995 5.56125 18.7856 4.93383 18.9551 4.29637H18.9552ZM21.4995 9.08348C21.1522 11.102 20.1181 11.5093 20.1181 12.9244C20.1182 13.6344 20.8206 14.1563 21.4995 14.1563C22.1938 14.1563 22.8531 13.6688 22.8531 12.9947C22.8531 11.6362 21.8585 11.0982 21.4996 9.08348H21.4995Z" fill="black"/>
</g>
<defs>
<clipPath id="clip0_82_1506">
<rect width="24" height="24" fill="white"/>
</clipPath>
</defs>
</svg>
