<svg width="24" height="24" viewBox="0 0 24 24" fill="none" xmlns="http://www.w3.org/2000/svg">
<path d="M6.0539 11.4093L16.6195 3.15697C16.6471 3.13523 16.6803 3.12173 16.7153 3.118C16.7502 3.11427 16.7855 3.12047 16.8171 3.13589C16.8486 3.15131 16.8752 3.17532 16.8938 3.20517C16.9123 3.23502 16.922 3.26949 16.9219 3.30463V5.11635C16.9219 5.23119 16.868 5.34134 16.7789 5.41166L8.3414 11.9999L16.7789 18.5882C16.8703 18.6585 16.9219 18.7687 16.9219 18.8835V20.6953C16.9219 20.8523 16.7414 20.939 16.6195 20.8429L6.0539 12.5906C5.9641 12.5205 5.89146 12.4309 5.84149 12.3286C5.79153 12.2262 5.76555 12.1138 5.76555 11.9999C5.76555 11.886 5.79153 11.7737 5.84149 11.6713C5.89146 11.569 5.9641 11.4794 6.0539 11.4093Z" fill="white" stroke="white" stroke-width="2"/>
</svg>
