<svg width="24" height="24" viewBox="0 0 24 24" fill="none" xmlns="http://www.w3.org/2000/svg">
<g clip-path="url(#clip0_7_12)">
<path d="M9.77917 3.11248L8.20833 3.69998C8.08333 3.74581 8 3.86665 8 3.99998C8 4.13331 8.08333 4.25415 8.20833 4.29998L9.77917 4.88748L10.3667 6.45831C10.4125 6.58331 10.5333 6.66665 10.6667 6.66665C10.8 6.66665 10.9208 6.58331 10.9667 6.45831L11.5542 4.88748L13.125 4.29998C13.25 4.25415 13.3333 4.13331 13.3333 3.99998C13.3333 3.86665 13.25 3.74581 13.125 3.69998L11.5542 3.11248L10.9667 1.54165C10.9208 1.41665 10.8 1.33331 10.6667 1.33331C10.5333 1.33331 10.4125 1.41665 10.3667 1.54165L9.77917 3.11248ZM1.92083 17.8083C1.14167 18.5875 1.14167 19.8541 1.92083 20.6375L3.3625 22.0791C4.14167 22.8583 5.40833 22.8583 6.19167 22.0791L22.0792 6.18748C22.8583 5.40831 22.8583 4.14165 22.0792 3.35831L20.6375 1.92081C19.8583 1.14165 18.5917 1.14165 17.8083 1.92081L1.92083 17.8083ZM20.1917 4.77498L15.8167 9.14998L14.8458 8.17915L19.2208 3.80415L20.1917 4.77498ZM0.3125 6.21665C0.125 6.28748 0 6.46665 0 6.66665C0 6.86665 0.125 7.04581 0.3125 7.11665L2.66667 7.99998L3.55 10.3541C3.62083 10.5416 3.8 10.6666 4 10.6666C4.2 10.6666 4.37917 10.5416 4.45 10.3541L5.33333 7.99998L7.6875 7.11665C7.875 7.04581 8 6.86665 8 6.66665C8 6.46665 7.875 6.28748 7.6875 6.21665L5.33333 5.33331L4.45 2.97915C4.37917 2.79165 4.2 2.66665 4 2.66665C3.8 2.66665 3.62083 2.79165 3.55 2.97915L2.66667 5.33331L0.3125 6.21665ZM14.9792 16.8833C14.7917 16.9541 14.6667 17.1333 14.6667 17.3333C14.6667 17.5333 14.7917 17.7125 14.9792 17.7833L17.3333 18.6666L18.2167 21.0208C18.2875 21.2083 18.4667 21.3333 18.6667 21.3333C18.8667 21.3333 19.0458 21.2083 19.1167 21.0208L20 18.6666L22.3542 17.7833C22.5417 17.7125 22.6667 17.5333 22.6667 17.3333C22.6667 17.1333 22.5417 16.9541 22.3542 16.8833L20 16L19.1167 13.6458C19.0458 13.4583 18.8667 13.3333 18.6667 13.3333C18.4667 13.3333 18.2875 13.4583 18.2167 13.6458L17.3333 16L14.9792 16.8833Z" fill="black"/>
</g>
<defs>
<clipPath id="clip0_7_12">
<rect width="24" height="24" fill="white"/>
</clipPath>
</defs>
</svg>
