<svg width="24" height="24" viewBox="0 0 24 24" fill="none" xmlns="http://www.w3.org/2000/svg">
<path d="M19.4047 12.975C19.4544 12.6827 19.4544 12.3414 19.4544 12C19.4544 11.6587 19.4047 11.3664 19.4047 11.025L21.4985 9.41636C21.6981 9.2702 21.7478 9.0265 21.5983 8.7827L19.6038 5.41876C19.504 5.22358 19.2051 5.1265 19.0054 5.22358L16.5123 6.19862C16.0136 5.80872 15.4157 5.46733 14.8173 5.22358L14.4681 2.63997C14.4185 2.44525 14.2188 2.25006 13.9695 2.25006H9.98052C9.73124 2.25006 9.5316 2.44525 9.48191 2.63997L9.0831 5.22358C8.48464 5.46733 7.93635 5.80867 7.38758 6.19862L4.89449 5.22358C4.64516 5.1265 4.39583 5.22358 4.29604 5.41876L2.30155 8.78275C2.20222 8.97742 2.25182 9.2702 2.40135 9.4164L4.54546 11.025C4.54546 11.3664 4.49577 11.6587 4.49577 12C4.49577 12.3414 4.54546 12.6337 4.54546 12.975L2.45164 14.5837C2.25196 14.7298 2.20236 14.9735 2.3518 15.2173L4.34628 18.5813C4.44613 18.7764 4.7451 18.8735 4.94474 18.7764L7.43788 17.8014C7.93649 18.1913 8.53447 18.5327 9.13288 18.7764L9.53169 21.3601C9.5818 21.6038 9.78097 21.75 10.0303 21.75H14.0193C14.2686 21.75 14.4682 21.5548 14.5179 21.3601L14.9172 18.7764C15.5152 18.5327 16.064 18.1914 16.6122 17.8014L19.1053 18.7764C19.3546 18.8735 19.604 18.7764 19.7038 18.5813L21.6983 15.2173C21.7981 15.0226 21.748 14.7298 21.5984 14.5836L19.4047 12.975ZM11.9751 15.4125C10.0303 15.4125 8.48474 13.9015 8.48474 12C8.48474 10.0985 10.0303 8.58751 11.9751 8.58751C13.9198 8.58751 15.4654 10.0985 15.4654 12C15.4654 13.9015 13.9198 15.4125 11.9751 15.4125Z" fill="black"/>
</svg>
