<svg width="368" height="475" viewBox="0 0 368 475" fill="none" xmlns="http://www.w3.org/2000/svg">
<path fill-rule="evenodd" clip-rule="evenodd" d="M219.5 95C245.734 95 267 73.7335 267 47.5C267 21.2665 245.734 0 219.5 0C193.266 0 172 21.2665 172 47.5C172 73.7335 193.266 95 219.5 95ZM219.5 82.7982C238.995 82.7982 254.798 66.9946 254.798 47.5C254.798 28.0054 238.995 12.2018 219.5 12.2018C200.005 12.2018 184.202 28.0054 184.202 47.5C184.202 66.9946 200.005 82.7982 219.5 82.7982Z" fill="#EA2845"/>
<path fill-rule="evenodd" clip-rule="evenodd" d="M295 319C310.464 319 323 306.464 323 291C323 275.536 310.464 263 295 263C279.536 263 267 275.536 267 291C267 306.464 279.536 319 295 319ZM295 311.807C306.492 311.807 315.807 302.491 315.807 291C315.807 279.508 306.492 270.192 295 270.192C283.508 270.192 274.193 279.508 274.193 291C274.193 302.491 283.508 311.807 295 311.807Z" fill="#EA2845"/>
<path fill-rule="evenodd" clip-rule="evenodd" d="M331 109C351.435 109 368 125.565 368 146C368 166.435 351.435 183 331 183C310.565 183 294 166.435 294 146C294 125.565 310.565 109 331 109ZM331 118.504C346.185 118.504 358.495 130.814 358.495 146C358.495 161.185 346.185 173.495 331 173.495C315.815 173.495 303.505 161.185 303.505 146C303.505 130.814 315.815 118.504 331 118.504Z" fill="#EA2845"/>
<circle cx="331.5" cy="145.5" r="12.5" fill="#EA2845"/>
<path fill-rule="evenodd" clip-rule="evenodd" d="M188.88 429.76C166.303 429.76 148 411.457 148 388.88C148 366.303 166.303 348 188.88 348C211.457 348 229.76 366.303 229.76 388.88C229.76 411.457 211.457 429.76 188.88 429.76ZM188.88 419.258C172.102 419.258 158.501 405.657 158.501 388.879C158.501 372.102 172.102 358.501 188.88 358.501C205.657 358.501 219.258 372.102 219.258 388.879C219.258 405.657 205.657 419.258 188.88 419.258Z" fill="#EA2845"/>
<circle cx="22" cy="22" r="22" transform="matrix(-1 0 0 1 211.077 367)" fill="#EA2845"/>
<path fill-rule="evenodd" clip-rule="evenodd" d="M31.8432 410.999C14.2567 410.999 -1.14441e-05 425.256 -1.14441e-05 442.842C-1.14441e-05 460.429 14.2567 474.686 31.8432 474.686C49.4297 474.686 63.6864 460.429 63.6864 442.842C63.6864 425.256 49.4297 410.999 31.8432 410.999ZM31.8432 419.18C18.7743 419.18 8.17986 429.774 8.17986 442.843C8.17986 455.912 18.7743 466.506 31.8432 466.506C44.912 466.506 55.5065 455.912 55.5065 442.843C55.5065 429.774 44.912 419.18 31.8432 419.18Z" fill="#EA2845"/>
</svg>
